<?xml version="1.0" encoding="UTF-8"?>
<svg id="Livello_1" xmlns="http://www.w3.org/2000/svg" version="1.1" viewBox="0 0 1901.19 341.84">
  <!-- Generator: Adobe Illustrator 30.8.1, SVG Export Plug-In . SVG Version: 2.1.4 Build 1)  -->
  <defs>
    <style>
      .st0 {
        fill-rule: evenodd;
      }

      .st0, .st1 {
        fill: #fff;
      }
    </style>
  </defs>
  <path class="st0" d="M237.01,161.08c10.43-6.72,23.38-15.4,25.24-16.61,1.18-.77,6.25-4.31,7.33-4.6.05.04.12.05.14.14l4.53,5.96c.82,1.38-.19,3.11,1.17,4.41,3.83,3.71,9.47-2.29,5.17-5.33-1.07-.76-1.14-.41-1.85-1.61-1.6-2.74-1.81-4.46-3.35-7.18.81-1.17-.14.06.66-.57l3.4-2.17c3.19-2.14,7.05-3.93,9.81-6.71l2.55-2.28c.73-.79,1.66-1.48,2.47-2.38.87-.98,1.23-1.76,2.16-2.81,2.57.41,5,1.05,6.93-1.23,3.65-4.29-.35-10.72-5.94-9.53-2.98.63-3.83,2.11-4.12,5.19-1.02.45-2.27.77-3.45,1.13-2.16.66-6.05,2.64-7.95,3.86l-2.54,1.65c-1.96,1.04-1.49,1.13-2.67,1.81l-2.95,1.8c-1.5.83-2.42,2.39-4.45,2.91-.35-.92-1.67-2.91-2.26-3.78-.57-.86-.81-.78-1.39-1.7-.5-.78.16,0-.45-.77-1.75-2.18-.06-2.99-1.38-4.8-1-1.36-3.48-1.6-4.81-.64-1.3.94-2.31,2.9-1.56,4.62,1.08,2.47,2.33,1.36,3.34,3.26.71,1.34,2.76,6.22,3.09,7.44-.79.41-1.22.66-1.97,1.12-.73.45-.5.24-1.12.56-.56.29-.24.11-.52.31-.24.17-.15.16-.46.38-.6.43-1.54.78-2.18,1.15-.91.53-1.03.89-1.9,1.46-1.55,1.03-13.55,8.67-23.48,15.09h0c.09.14.17.27.26.41h0c.09.14.17.27.26.41h0l.02.04c.07.11.14.24.21.35l.05.09.16.29.09.16.02.04.02.04.04.07.02.04.02.04.02.04.11.2.02.04.02.04.02.04.02.04.02.04.02.04,19.42-12.77c1.25-.91,2.21-1.22,3.62-2.21.92-.41.63-.41,1.25-1.03.48-.48.82-.6,1.6-.94,1.48-.58.42-.3,1.5-.93.61-.36.73-.3,1.46-.77.98-.63,1.74-.97,2.81-1.71l.97,1.98c-.62.92-4.38,2.9-5.52,3.63-.3.68,0,.17-.62.43-.01,0-.09,0-.11.02-.81.38-.09.51-1.18.47l-2.48,2.03c-.19.09-.37.16-.57.27-1.34.71-1.13,1-2.89,2.16-.36.24-9.68,6.43-17.98,11.98v.04l.02.04v.04l.02.02h0v.08s.03.04.03.04v.02h0v.04l.02.04v.04l.02.02h0v.09s.03.04.03.04v.02h0v.05l.02.04v.04l.02.02h0v.09s.03.04.03.04h0v.07l.02.04v.04h.02v.06s0,.04,0,.04l.02.04h0v.07l.02.04v.04h.02v.04l.02.04v.04l.02.04h0v.07l.02.04v.04h.02v.02l.02.04v.04l.02.04h0v.07l.02.04v.04h0v.02l.02.04v.04l.02.04h0v.07l.02.04v.04h0v.02l.02.04v.04l.02.04h0v.04l23.21-15.7c2.13-1.49,3.52-1.8,4.5-2.76.48-.48-.16-.05.43-.41.31-.19.58-.16.98-.36.89-.45.71-.74,2.02-1.2l-31.08,20.58.02.05v.04h.02l.02.05v.05l.02.02v.02l.02.05v.05h.02v.05l.02.05v.05h.02v.05l.04.05v.04h0v.05l.04.05.04.1v.05h.02v.05l.02.05v.05h0v.05l.04.05v.05l.04.05v.05l.02.02v.02l.02.05.04.1v.05l.04.05h0v.1s.03.04.03.04h0v.11s.03.02.03.02v.02l.02.05v.05h.02v.05l.02.05v.05h0v.05l.02.05v.04h0v.05l.02.05v.1s.03.05.03.05h0v.1l.02.05h0v.1s.03.04.03.04h0v.11s.03.02.03.02v.02l.02.05v.05h0v.05l.02.05h0l.19-.19.33-.07ZM221.5,222.66l-.05.07v.02l-.04.02-.02.02-.02.02-.02.02-.02.02v.02h-.02l-.02.02-.02.02-.02.02-.02.02-.02.02-.02.02h0v.02l-.02.02-.02.02-.02.02-.02.02-.02.02-.02.02h0v.02l-.04.02-.02.02-.02.02-.02.02-.02.02v.02h-.02l-.02.02-.02.02-.02.02-.02.02-.02.02-.02.02h0v.02l-.04.02-.02.02-.02.02-.02.02-.02.02-.02.02h0l-.02.02-.02.02-.02.02-.02.02-.02.02-.02.02h0v.02l-.02.02-.02.02-.02.02-.02.02-.02.02-.02.02h0v.02l-.04.02-.02.02-.02.02-.02.02-.02.02v.02h-.02l-.02.02-.02.02-.02.02c7.19,7.59,14.44,15.08,15.67,16.37.97,1.03,5.36,5.38,5.84,6.39-.02.06-.02.14-.11.16l-5.06,5.52c-1.2,1.05-3.09.37-4.14,1.93-2.96,4.43,3.96,8.91,6.17,4.14.55-1.19.2-1.2,1.25-2.11,2.41-2.07,4.08-2.58,6.46-4.58,1.3.6-.09-.12.68.55l2.74,2.95c2.68,2.75,5.12,6.24,8.34,8.46l2.7,2.11c.91.58,1.75,1.38,2.78,2,1.12.67,1.95.89,3.15,1.62.05,2.6-.15,5.11,2.44,6.61,4.87,2.81,10.49-2.26,8.31-7.55-1.15-2.81-2.75-3.4-5.84-3.12-.62-.93-1.17-2.11-1.72-3.2-1.03-2.01-3.68-5.48-5.21-7.13l-2.08-2.19c-1.38-1.75-1.38-1.26-2.26-2.29l-2.29-2.58c-1.09-1.33-2.79-1.96-3.66-3.87.84-.51,2.57-2.17,3.32-2.9.74-.72.63-.94,1.43-1.67.68-.63.04.15.67-.58,1.83-2.12,2.93-.6,4.46-2.22,1.17-1.23.95-3.71-.22-4.85-1.15-1.12-3.26-1.76-4.82-.71-2.23,1.5-.93,2.53-2.62,3.86-1.19.93-5.64,3.83-6.76,4.36-.55-.71-.87-1.08-1.45-1.74-.57-.64-.32-.45-.74-.99-.38-.5-.15-.21-.4-.46-.21-.21-.17-.11-.46-.38-.53-.51-1.04-1.36-1.52-1.93-.68-.79-1.05-.86-1.79-1.61-1.17-1.22-9.13-9.82-16.63-17.83h0v.04h0v.02h0v.02h0v.04h0v.04h0v.04h0v.04h0v.04h0v.04h0v.05h0v.04h0v.04h0v.04h0v.04h0v.04h0v.02h0v.02h0v.04h0v.04h0v.04h0v.04h0v.04h0l-.02.05h0v.04h0v.04h0v.04h0v.04h0v.04h0v.04h0v.04h0v.04l-.02.02-.02.05-.02.04-.02.04v.02l-.02.02-.02.04-.02.04-.02.04-.02.04-.02.04h0l-.02.04-.02.04-.02.04-.02.04-.02.04v.02l-.02.02-.02.04-.02.04-.02.04-.02.04-.02.04h0l-.02.04-.02.04-.02.04-.02.04-.02.04v.02l-.02.02-.02.04-.02.04-.02.04-.02.04-.02.04h0l-.02.04-.02.04-.02.04-.02.04-.02.04h0v.04l-.04.04-.02.04-.02.04-.02.04-.02.04h0l-.02.04-.02.04-.02.04-.02.04-.02.04h0v.04l-.02.04-.02.04-.02.04-.02.04-.02.04h0l-.02.04-.02.04-.02.04-.02.04-.02.04h0v.04l-.02.04-.02.04-.02.04-.02.04-.02.04-.05.07-.05.07-.04.05v.02l-.06.07-.05.07v.02l-.05.05-.05.07-.05.07h0l-.05.07-.05.07-.04.05h0l-.05.09-.05.07-.02.02-.07.11-.05.07h0l-.04.07-.05.07-.04.05h0l-.05.09-.05.07-.02.04-.02.04-.05.06-.05.06h0l-.04.06-.05.06-.04.06h0l-.05.07-.05.06-.02.04-.02.02-.05.06-.05.06h0l-.04.06-.05.06-.05.06h0l-.05.07-.05.06-.02.04v.02l-.06.06-.05.06v.02l-.05.05-.05.06-.05.06-.05.06-.05.06-.04.05v.02l-.06.06-.05.06-.02.02-.02.04-.05.06-.05.06h0l-.05.06-.05.06-.04.05h0l-.05.09-.05.06-.02.02-.02.04-.05.06-.05.06h0l-.05.06-.05.06-.04.05h0l-.07.1h0l-.5.04-.54.23ZM224.47,223.78l13.13,13.42c1.85,1.83,2.41,3.15,3.52,3.93.56.4,0-.16.48.36.24.27.26.55.53.91.6.79.86.56,1.55,1.77l-19.6-20.43.4.05h0ZM227.2,223.43c.88-.42,1.59-1.18,1.8-2.23h0v.02l9.3,9.76c1.12,1.07,1.59,1.96,2.81,3.17.56.83.52.55,1.23,1.04.57.4.73.69,1.22,1.4.84,1.35.37.36,1.19,1.3.46.53.42.66,1.02,1.3.79.84,1.26,1.52,2.19,2.45l-1.77,1.3c-1.02-.45-3.63-3.78-4.56-4.77-.73-.17-.16.02-.55-.52,0,0-.04-.09-.05-.1-.52-.73-.52,0-.67-1.08l-2.44-2.08c-.12-.16-.22-.33-.37-.51-.93-1.19-1.19-.93-2.64-2.47-.19-.2-3.52-3.66-7.72-8.01h.02v.03ZM239.62,191.72c.09-.06.17-.14.26-.2l21.36,1.77c2.59.17,3.87.81,5.23.67.68-.07-.1-.14.6-.04.36.05.56.24.99.33.97.21,1.02-.14,2.33.32l-30.79-2.86h.02ZM241.58,189.44c.29-.92-.05-1.9-1.28-2.98l17.39,1.67c1.54.09,2.48.45,4.2.55.97.26.76.07,1.61,0,.68-.07,1.02.05,1.83.27,1.51.47.52.02,1.75.21.69.1.76.22,1.62.31,1.15.12,1.96.32,3.26.42l-.48,2.14c-1.05.32-5.22-.48-6.57-.63-.66.35-.11.12-.76-.04-.02,0-.07-.05-.1-.05-.87-.21-.38.35-1.22-.37l-3.21.02c-.2-.05-.4-.1-.61-.15-1.48-.29-1.5.07-3.61-.14-.31-.04-6.58-.6-13.87-1.25h.02l.03.03ZM238.52,185.19l-.05-.02v.02l-.02.1-.02.12-.02.12-.02.12-.04.22v.04l-.02.12v.02l-.02.11-.02.12v.06l-.02.06-.02.12h0c-.02.17-.06.35-.1.51l-.02.12-.02.12-.02.12-.05.26-.02.14-.02.12h0l-.02.14-.02.14-.02.14-.02.14-.02.14-.06.26-.02.14-.02.14-.02.14c-.04.17-.07.35-.12.52h0l-.04.14-.02.12h0l-.04.14-.04.14-.04.14-.04.14h0l-.02.14-.04.14v.05l-.04.07-.04.14v.02l-.04.11-.04.14-.04.14-.04.12h0l-.04.14v.05l-.04.07-.04.14-.04.14-.04.14-.04.14-.04.12h0l-.04.14-.04.14h0l-.04.14-.07.27-.04.14h0l-.04.14h0v.04h0v.04h0v.04h0v.04h0v.04h0v.05h0v.05h0v.04h0v.04h0v.04h0v.04h0v.04h0v.04h0v.02h0v.02h0v.04h0v.04h0v.04h0v.04h0v.04h0v.04h0v.04h0v.04h0v.05h0v.04h0v.04h0v.04h0v.04h0v.04h0v.04h0v.04c11.44,1.17,24,2.26,25.97,2.45,1.4.14,7.58.56,8.59,1,.01.06.06.12.02.19l-.21,7.48c-.22,1.59-2.1,2.31-1.86,4.18.66,5.29,8.82,4.15,7.38-.91-.36-1.25-.63-1.04-.42-2.42.47-3.14,1.39-4.62,1.9-7.69,1.36-.4-.15-.04.87-.02l4,.43c3.83.32,7.96,1.36,11.84.93l3.42-.17c1.07-.15,2.22-.1,3.41-.31,1.29-.22,2.06-.6,3.45-.83,1.75,1.93,3.22,3.96,6.17,3.4,5.52-1.05,6.45-8.57,1.34-11.15-2.72-1.38-4.3-.77-6.46,1.46-1.08-.3-2.26-.83-3.4-1.29-2.1-.84-6.37-1.72-8.6-1.98l-3.01-.3c-2.18-.42-1.87-.05-3.21-.26l-3.42-.45c-1.69-.3-3.38.35-5.29-.52.3-.93.52-3.31.62-4.36.09-1.03-.14-1.12-.02-2.19.1-.92.12.1.12-.88,0-2.8,1.82-2.37,1.93-4.6.07-1.7-1.71-3.43-3.35-3.52-1.6-.09-3.62.81-4.12,2.63-.71,2.59.95,2.53.55,4.62-.29,1.49-1.75,6.58-2.26,7.72-.88-.17-1.35-.25-2.23-.36-.84-.11-.53-.12-1.22-.26-.62-.12-.26-.06-.6-.09-.29-.02-.21.02-.6,0-.73-.04-1.69-.36-2.43-.47-1.04-.15-1.36.05-2.39-.05-1.66-.15-13.2-1.44-24.07-2.58v.1l-.06.45h0v.07h0v.05h0v.06h0v.05h0v.04h0v.05h0v.04h0v.04h0v.09h0v.04h0v.04h0v.05h0v.04h0v.09h0v.05h0v.04h0v.04h0v.05h0v.04h0v.09h0v.04h0v.04h0l.05.05h0l-.42-.1-.04-.12ZM125.61,230.52l5.62,6.51.31.36c-6.56,7.51-12.94,14.68-14.06,15.97-.92,1.07-5.13,5.6-5.57,6.62.02.05.04.12.11.15l5.28,5.29c1.25,1,3.1.25,4.22,1.76,3.15,4.3-3.57,9.08-5.99,4.39-.6-1.17-.25-1.19-1.34-2.05-2.49-1.96-4.18-2.41-6.65-4.3-1.26.64.09-.12-.66.58l-2.62,3.07c-2.57,2.86-4.86,6.45-7.98,8.79l-2.6,2.22c-.88.62-1.69,1.45-2.69,2.12-1.09.72-1.91.98-3.09,1.76.05,2.6.36,5.1-2.17,6.7-4.75,3.03-10.58-1.81-8.63-7.19,1.04-2.86,2.6-3.51,5.7-3.37.58-.95,1.07-2.14,1.59-3.26.94-2.05,3.45-5.63,4.91-7.34l1.98-2.28c1.3-1.8,1.33-1.31,2.16-2.39l2.18-2.68c1.03-1.38,2.7-2.07,3.5-4.02-.86-.47-2.65-2.06-3.45-2.75-.77-.68-.67-.91-1.49-1.61-.71-.6-.02.16-.69-.55-1.92-2.03-2.95-.47-4.56-2.02-1.22-1.18-1.12-3.67.02-4.86,1.1-1.17,3.19-1.9,4.8-.91,2.29,1.4,1.04,2.49,2.78,3.74,1.23.88,5.79,3.58,6.94,4.08.51-.73.82-1.1,1.38-1.8.55-.67.3-.46.71-1.03.36-.51.15-.22.38-.47.2-.21.17-.12.43-.4.51-.53.98-1.41,1.45-2,.66-.83,1.02-.89,1.71-1.67,1.04-1.18,7.8-9.13,14.53-16.97l1.55,1.8h-.01.01ZM126.82,237.8c-.1-.02-.2-.05-.3-.07l-10.96,12.2c-1.76,1.91-2.27,3.25-3.35,4.08-.55.42-.02-.16-.46.37-.22.27-.24.56-.5.93-.56.82-.83.6-1.48,1.83l17.04-19.34h.01ZM124.64,236.59c-1.31-1.45-.76-3.35-.72-3.48l-9.31,10.64c-1.07,1.12-1.5,2.02-2.68,3.29-.52.86-.5.57-1.19,1.09-.55.42-.71.73-1.15,1.45-.78,1.38-.36.38-1.13,1.35-.43.56-.4.68-.97,1.34-.76.88-1.2,1.59-2.08,2.55l1.82,1.23c.99-.48,3.47-3.93,4.35-4.96.72-.2.16,0,.52-.55,0,0,.02-.09.04-.1.5-.74.52,0,.63-1.1l2.36-2.18c.11-.17.21-.35.35-.52.88-1.23,1.14-.98,2.53-2.57.17-.2,2.98-3.36,6.63-7.49h.01-.01s0,.01,0,.01ZM110.25,212.07l-.24-.12-22.01,8.57c-2.44.91-3.48,1.87-4.82,2.13-.68.12.05-.16-.58.12-.32.15-.47.38-.86.61-.87.48-1.02.16-2.14.98l30.65-12.29h0ZM105.35,208.33l-15.44,6.24c-1.45.52-2.26,1.13-3.88,1.72-.86.52-.71.29-1.55.45-.68.12-.95.33-1.69.78-1.33.88-.48.17-1.62.69-.64.3-.66.43-1.46.76-1.08.45-1.79.87-3.01,1.34l1.08,1.92c1.1,0,4.87-1.95,6.12-2.47.73.15.15.09.71-.26.01,0,.06-.06.09-.07.78-.45.47.22,1.05-.71l3.07-.89c.17-.1.35-.21.55-.31,1.34-.69,1.46-.36,3.42-1.15.31-.12,7.17-2.85,14.67-5.83l.04.02c-1.12-.71-1.92-1.41-2.14-2.19v-.04h0ZM107.35,205.37l.02.04.04.07.06.11.06.11.05.1v.02l.07.11.06.11.06.11.02.04.04.07.06.11.06.11.05.09v.02l.07.11.06.11.06.11.06.11h0l.06.12.06.11.05.09v.02h.02l.12.22.06.11.06.11h0l.06.12.06.11.05.09v.02l.15.24.06.11v.02l.06.09.12.24.05.09.02.04.06.11.06.11.06.11v.02l.14.21.06.11.05.07.02.04.06.11.06.11.06.11h0l.06.11.14.24.07.14.19.31h0l.21.36.06.1.07.11.11.19.02.04h0l.06.11.14.22.04.06.02.05.07.11.07.11.07.11.05.09v.02h.01v.02l.04.02v.02l.04.02v.02l.04.02v.02l.04.02v.02l.02.02h0v.04l.04.02v.02l.04.02.02.02v.02l.04.02v.02l.04.02v.02l.04.02v.02l.07.09v.02l.04.02.02.02v.02l.04.02v.02l.04.02.02.02v.02l.04.02v.02l.04.02.02.02.02.02v.02l.04.02.02.02v.02l.04.02v.02l.04.02.02.02.02.02v.02h.02l.02.05.02.02v.02l.04.02.02.02.02.02.02.02.02.02v.02l.04.02.02.02.02.02.04.06c-10.72,4.41-22.69,9.13-24.54,9.88-1.3.53-7.1,2.69-7.96,3.41,0,.06-.02.14.04.19l2.33,7.12c.67,1.45,2.67,1.62,2.98,3.47.88,5.26-7.28,6.5-7.33,1.23-.01-1.3.31-1.18-.27-2.43-1.34-2.88-2.64-4.03-4-6.83-1.43,0,.12-.07-.84.22l-3.72,1.56c-3.58,1.4-7.24,3.57-11.1,4.25l-3.32.81c-1.07.15-2.16.53-3.36.67-1.29.15-2.14,0-3.55.17-1.13,2.34-1.97,4.71-4.95,5.01-5.59.56-8.63-6.39-4.46-10.3,2.22-2.1,3.91-1.96,6.61-.43.94-.58,1.92-1.44,2.89-2.19,1.77-1.4,5.62-3.47,7.69-4.35l2.8-1.14c1.97-1.02,1.77-.58,3-1.17l3.16-1.4c1.54-.76,3.35-.63,4.92-2.01-.56-.81-1.44-3.03-1.83-4-.38-.95-.19-1.12-.61-2.11-.36-.84-.1.12-.37-.81-.81-2.68-2.43-1.75-3.16-3.86-.56-1.6.66-3.77,2.21-4.33,1.51-.53,3.69-.25,4.69,1.35,1.41,2.29-.2,2.69.79,4.6.69,1.34,3.56,5.81,4.36,6.77.79-.42,1.23-.62,2.03-.98.78-.35.47-.27,1.09-.6.56-.3.22-.14.56-.25.27-.1.21-.02.57-.16.69-.25,1.51-.82,2.19-1.14.95-.45,1.31-.33,2.28-.73,1.56-.62,12.36-5.18,22.48-9.37h0v.02h0v.02h0v.02h0v.02h0v.02h0v.02h0v.02h0v.02h0v.02h0v.02h0v.02h0v.02h0v.02h0v.02h0v.02l.02.05h0v.02h0v.02h0v.02h0v.02h0v.02h0v.02h0v.02h0v.02l.02.05h0v.04h0v.02h0v.02h0v.02h0l.24.22.14.44ZM99.88,186.17l-.09-.09.09.1h0v.02h0v.02h0v.02h0v.02h0v.02h0v.02h0v.02h0v.02h0v.02h0v.02h0v.02h0v.02h0v.02h0v.02h0v.02h0c-11.52-.72-24.19-1.71-26.17-1.83-1.4-.09-7.56-.69-8.64-.42-.02.06-.09.11-.05.19l-1.02,7.41c-.04,1.6,1.69,2.62,1.15,4.43-1.51,5.11-9.39,2.64-7.12-2.11.56-1.18.79-.92.82-2.31.05-3.17-.61-4.79-.61-7.9-1.28-.62.15,0-.86-.17l-4.03-.22c-3.83-.31-8.07.04-11.84-1.04l-3.35-.73c-1.03-.32-2.17-.47-3.31-.87-1.23-.43-1.93-.93-3.26-1.39-2.03,1.61-3.83,3.37-6.65,2.33-5.27-1.95-4.96-9.51.51-11.22,2.91-.91,4.38-.05,6.14,2.5,1.1-.11,2.36-.45,3.56-.71,2.21-.48,6.57-.66,8.82-.53l3.03.2c2.22-.05,1.85.26,3.2.27l3.46.12c1.71,0,3.29.89,5.31.35-.14-.97.04-3.36.11-4.4.07-1.03.32-1.08.38-2.16.05-.92-.14.07.02-.89.46-2.76-1.41-2.64-1.14-4.85.2-1.69,2.24-3.1,3.88-2.91,1.6.17,3.43,1.39,3.62,3.27.27,2.68-1.35,2.33-1.3,4.48.04,1.51.64,6.78.95,8,.89-.04,1.38-.02,2.26,0,.86.02.55-.04,1.24-.06.63-.02.26-.02.61,0,.29.02.2.06.58.11.73.09,1.71-.07,2.47-.06,1.05.02,1.33.27,2.37.35,1.62.12,12.58.72,23.19,1.35v.17h0v.53h0v.26h0v.25h0v.25h0v.3h0v.37h0v.36h0v.37h0v.33h0v.21s.01.15.01.15h0v.24s.01.11.01.11l.04.32v.17l.02.12v.11l.05.3v.06l.04.21v.15l.02.12v.11h.01l.02.24v.11h.01v.11l.04.11h0l.04.21h0v.19s.01.05.01.05v.11s.05.11.05.11h0v.22s.05.11.05.11v.11l.04.11.02.11v.1h.02l.02.11.04.2h0l.02.12v.07l.02.02.02.11.02.1.02.1.02.1.02.1.02.1.02.1.02.1v.02l.02.07.02.1h0l.04.2.02.1.05.2.02.1.02.1.02.1.02.1.02.1.02.1.02.1.02.1.02.1.05.19h0l.02.11h0l.38.2.13.11ZM97.64,183.25l-.15-.22-22.07-1.82c-2.59-.25-3.96.16-5.27-.2-.67-.19.11-.11-.58-.14-.36,0-.6.15-1.03.17-.99.05-.98-.3-2.36-.06l31.45,2.28h0ZM97.23,182.59l-.07-.14.06.1.02.04s-.01,0,0,0ZM97.07,182.32l-.02-.04v.02h.02v.02ZM96.25,180.69c-.43-1.02-.71-2.02-.67-2.89l-15.82-1.1c-1.54-.17-2.52.02-4.24-.15-.99.1-.76-.05-1.59-.29-.66-.19-1-.12-1.86-.04-1.57.21-.52-.05-1.76-.09-.71,0-.78.1-1.65.04-1.17-.07-1.98,0-3.29-.11l.12,2.19c.99.5,5.23.38,6.58.46.6.46.09.14.74.09.02,0,.09-.02.11-.04.89-.06.32.41,1.25-.16l3.16.56c.21,0,.4-.04.62-.04,1.5-.04,1.48.32,3.58.46.32.02,7.05.53,14.69,1.1h.03ZM101.36,154.89c-10.1-5.57-21.13-11.85-22.86-12.81-1.23-.68-6.55-3.86-7.64-4.07-.05.04-.12.06-.12.15l-4.08,6.27c-.72,1.43.41,3.09-.84,4.49-3.55,3.98-9.62-1.6-5.54-4.93,1-.83,1.12-.5,1.72-1.74,1.4-2.84,1.49-4.59,2.81-7.4-.89-1.1.14.05-.71-.52l-3.55-1.92c-3.34-1.91-7.32-3.41-10.27-5.98l-2.72-2.08c-.78-.73-1.77-1.35-2.63-2.19-.93-.92-1.35-1.66-2.36-2.65-2.53.6-4.91,1.41-7.01-.72-3.94-4.02-.43-10.72,5.23-9.93,3.01.42,3.98,1.82,4.49,4.87,1.05.37,2.32.6,3.52.87,2.21.5,6.22,2.21,8.21,3.26l2.65,1.46c2.03.89,1.56,1.02,2.79,1.61l3.07,1.57c1.55.72,2.59,2.21,4.65,2.58.29-.94,1.46-3.03,1.97-3.94.51-.89.74-.84,1.26-1.8.43-.81-.16,0,.4-.79,1.59-2.31-.16-2.99,1.03-4.88.91-1.44,3.36-1.85,4.75-.99,1.36.84,2.52,2.73,1.88,4.5-.89,2.54-2.22,1.54-3.09,3.5-.61,1.39-2.31,6.41-2.54,7.64.82.35,1.25.57,2.05.97.77.38.51.2,1.15.47.58.25.25.1.55.27.25.15.16.15.48.35.62.38,1.59.67,2.26.99.94.47,1.09.82,2,1.33,1.55.87,12.96,7.02,22.99,12.51l-.02.04-.02.04-.02.04-.02.04-.15.17-.02.04-.02.04-.02.04-.02.04-.2.24h0l-.02.04-.02.04-.02.04-.02.04-.02.04-.09.1-.02.04-.02.04-.02.04-.02.04-.02.04-.02.04-.11.14-.02.04-.02.04-.02.04-.02.04-.02.04-.02.04-.09.11-.02.04-.02.04-.02.04-.05.07-.02.04-.02.04h0l-.1.14-.14.19-.02.04-18.23-10.18c-1.31-.81-2.29-1.04-3.77-1.93-.94-.33-.67-.36-1.31-.93-.52-.45-.86-.53-1.66-.82-1.51-.48-.45-.27-1.56-.82-.63-.31-.74-.25-1.51-.67-1.02-.56-1.8-.84-2.93-1.5l-.82,2.05c.68.87,4.58,2.58,5.77,3.22.35.66.02.16.64.4.02,0,.09,0,.11,0,.83.32.12.51,1.2.38l2.62,1.85c.19.07.38.14.58.22,1.38.61,1.19.92,3.04,1.93.33.19,8.28,4.69,16.2,9.17h0v.02l-.02.04h0v.02h0v.02h0v.04h0l-.07.14h0v.04h0l-.15.26h0v.02h0v.02c-.07.12-.14.24-.21.36h0v.02h0v.02h0v.05h-.01v.02h0v.02h0v.04h0v.05h-.01v.02h0v.02h0v.04h0v.02h0v.02h0v.02h0v.02h0v.04h0v.02h0v.02l-.04.06h0v.02h-.01v.02l-.04.06h0v.02h0v.04h0v.02h0v.05h-.01v.02h0l-21.34-12.26c-2.23-1.33-3.65-1.54-4.69-2.43-.52-.45.16-.05-.47-.37-.32-.16-.6-.12-1-.29-.92-.37-.76-.69-2.11-1.05l29.51,16.6h0l-.02.05-.02.05-.02.05h0v.05l-.04.05-.02.05v.02l-.02.02-.02.05-.02.05v.04h-.02l-.02.05-.02.05-.02.05h0l-.02.05-.02.05-.02.05h0v.05l-.06.1v.02l-.02.02-.02.05-.02.05v.02h-.02l-.02.06-.02.05-.02.04h0l-.02.05-.02.05-.02.05h0l-.02.05-.02.05-.02.05h0v.05l-.04.05-.02.05v.02l-.02.02-.02.05-.02.05v.04h-.02l-.02.05-.02.05-.02.05h0l-.02.05-.02.05-.02.05h0v.05l-.04.05-.02.05v.02l-.02.02-.02.05-.02.05v.02h-.02v.06l-.04.05v.04h-.01v.05l-.04.05v.05h-.02v.04l-.04.05v.05h-.02v.04l-.02.05v.05h-.02l-.52-.11h-.33ZM63.96,147.19c-.36-.93-.93-1.13-1.8-.35.47.99.71,1.13,1.8.35ZM63.58,143.44c.98-.74,1.02-.62,1.57-1.57,1.07-1.81,1.02-1.03,1.87-3.07.61-1.45.56-.63,1.92-2.84l.84-1.6c.99-1.8,6.22-13.38,6.34-14.73-1.05,1.12-1.56,1.77-1.95,3.16-.22.77-.06.56-.63,1.25-2.1,2.6.05,1.35-2.22,2.83.4.3.76-.67.07.99l-1.71,3c-1.5,3.03-1.92,3.5-3.03,6.22-.17.42-.71,1.61-.93,2.03-1.18,2.14-.83.42-2.16,4.31h0l.02.02ZM61.79,127.2c-.87.2-1.97.67-2.93.93l1.38,1.41,2.43-.93c1.5-.48,3.21-.88,3.98-2.11-2-.07-.53-.71-2.36-.19-.83.24-1.6.62-2.52.89h.02ZM54.89,125.74c1.79,2.18,3.53-.14,8.46-.99-1-.58-.88-.61-1.35-.91-.04-.02-.14-.06-.19-.09-.47-.15-5.73.71-6.92,1.98h0ZM58.4,121.9c-1.74-1.41-1.55-.82-3.86-.32l-4.55.83c1.05,2.17,2.98,1.44,4.08,1.17,1.29-.32,3.67-1.12,4.33-1.66h0v-.02ZM48.39,120.56l4.86-1c-1.64-1.7-1.98-1.29-4.05-.89l-2.47.55c.53,1.72.68,1.57,1.66,1.35h0ZM44.81,118.44c0-.16-.27-.42-.4.11-.07.31.43.31.4-.11ZM40.72,112.06c-3.03-.87-4.81,4.04-1.44,4.9.92.24,2.22,0,2.8-1.03.1-.17.24-.6.27-.81.2-1.25-.46-2.73-1.64-3.07h0ZM78.51,116.2c-.1-.81-.06-.76-.73-1.08-.69.77-.37,1.09-.14,1.97l.88-.91h-.01v.02ZM62.87,195.61c-.72-.68-1.33-.63-1.77.45.86.71,1.12.72,1.77-.45ZM60.93,192.37c.57-1.09.66-.99.76-2.1.2-2.1.48-1.36.38-3.58-.07-1.57.24-.82.53-3.38l.09-1.81c.14-2.06-.07-14.75-.53-16.03-.48,1.45-.66,2.27-.42,3.69.12.79.17.53-.04,1.4-.78,3.25.62,1.2-.81,3.51.48.1.4-.93.5.87l-.27,3.45c-.06,3.37-.26,3.98-.09,6.92.02.45.05,1.75.02,2.23-.15,2.44-.57.73-.11,4.82h0ZM52.4,178.44c-.69.55-1.5,1.45-2.26,2.08l1.85.69,1.81-1.88c1.15-1.08,2.53-2.16,2.7-3.6-1.83.78-.79-.41-2.21.83-.64.57-1.18,1.24-1.9,1.87h0ZM45.53,180.06c2.54,1.2,3.14-1.62,7.23-4.49-1.15-.1-1.05-.17-1.61-.25h-.2c-.5.06-4.87,3.07-5.42,4.74h0ZM47.06,175.1c-2.17-.55-1.75-.09-3.63,1.35l-3.76,2.68c1.87,1.51,3.3.04,4.18-.68,1.03-.83,2.85-2.58,3.21-3.35ZM37.44,178.15l3.97-2.98c-2.19-.83-2.34-.32-4.04.92l-2,1.54c1.22,1.34,1.28,1.13,2.07.52h0ZM33.3,177.76c-.09-.15-.43-.27-.31.26.06.31.52.1.31-.26ZM26.88,173.73c-3.11.5-2.63,5.7.78,5.05.93-.17,2.01-.94,2.1-2.12.01-.2-.04-.64-.1-.84-.35-1.22-1.57-2.28-2.79-2.08h.01ZM62.85,161.38c-.42-.69-.38-.66-1.13-.66-.3.99.12,1.14.72,1.85l.41-1.19ZM83.03,238.97c-.94-.3-1.46,0-1.4,1.19,1.07.26,1.33.16,1.4-1.19ZM79.87,236.91c.04-1.23.16-1.18-.24-2.22-.74-1.97-.17-1.44-1.23-3.38-.76-1.39-.15-.83-1-3.27l-.72-1.66c-.78-1.91-6.53-13.23-7.5-14.17.2,1.52.41,2.33,1.24,3.5.46.66.4.41.58,1.28.72,3.26,1.08.82.81,3.51.48-.12-.05-1,.82.56l1.26,3.22c1.43,3.06,1.51,3.69,2.95,6.26.22.4.82,1.55.99,2,.93,2.26-.2.91,2.01,4.38h.03ZM66.1,228.12c-.38.79-.72,1.96-1.12,2.85l1.96-.19.79-2.48c.57-1.48,1.33-3.05.86-4.43-1.3,1.5-.89-.02-1.62,1.71-.33.79-.52,1.62-.88,2.52h.01v.02ZM60.63,232.59c2.81-.04,2.11-2.84,4.53-7.2-1.09.41-1.02.31-1.56.48-.04,0-.14.06-.17.09-.41.27-3.04,4.9-2.79,6.63h-.01ZM59.83,227.46c-2.19.46-1.61.69-2.68,2.8l-2.21,4.05c2.34.53,2.98-1.41,3.46-2.44.56-1.2,1.44-3.57,1.41-4.41h.02ZM52.52,234.42l2.26-4.41c-2.34.21-2.26.74-3.24,2.6l-1.13,2.27c1.69.67,1.65.46,2.1-.45h.01ZM48.63,235.88c-.14-.1-.51-.05-.16.37.2.25.51-.14.16-.37ZM41.09,235.06c-2.58,1.81.14,6.29,2.91,4.19.76-.57,1.39-1.72.95-2.83-.07-.19-.31-.56-.46-.72-.84-.94-2.42-1.36-3.42-.66h0v.02ZM68.01,208.21c-.68-.43-.63-.42-1.3-.1.16,1.02.62.97,1.45,1.35,0,0-.15-1.25-.15-1.25ZM119.45,268.64c-.98.16-1.3.68-.72,1.69,1.07-.25,1.25-.46.72-1.69ZM115.69,268.23c-.52-1.12-.38-1.13-1.22-1.87-1.55-1.43-.81-1.22-2.62-2.47-1.29-.89-.51-.68-2.37-2.47l-1.39-1.17c-1.55-1.35-11.79-8.88-13.08-9.26.87,1.26,1.41,1.9,2.69,2.57.71.37.53.19,1.1.88,2.11,2.59,1.33.24,2.31,2.76.37-.32-.5-.87.99.14l2.58,2.31c2.65,2.1,3.01,2.62,5.46,4.25.37.25,1.43,1.02,1.79,1.34,1.86,1.6.24.91,3.77,3h-.01,0ZM99.44,266.58c.01.89.25,2.07.3,3.05l1.67-1.05-.41-2.58c-.16-1.56-.19-3.32-1.23-4.33-.48,1.93-.81.38-.67,2.27.06.87.27,1.69.35,2.64h-.01,0ZM96.57,273.04c2.5-1.3.61-3.48.79-8.47-.78.86-.77.73-1.18,1.13-.04.04-.09.11-.12.16-.25.43-.5,5.74.5,7.18h.01ZM93.56,268.81c-1.75,1.4-1.13,1.34-1.13,3.71l-.14,4.61c2.34-.58,2.02-2.6,1.98-3.74-.04-1.33-.32-3.83-.73-4.58h.02ZM90.16,278.32l.02-4.96c-2,1.24-1.67,1.67-1.71,3.78v2.53c1.82-.16,1.7-.33,1.69-1.34h0ZM87.35,281.37c-.16-.02-.47.17.02.41.29.14.4-.36-.02-.41ZM80.24,284.05c-1.49,2.78,2.95,5.55,4.5,2.43.42-.84.47-2.17-.42-2.96-.15-.12-.53-.36-.73-.43-1.18-.46-2.76-.12-3.35.95h0ZM92.17,247.94c-.81-.07-.76-.1-1.2.5.61.83.98.58,1.91.55l-.69-1.04h-.02ZM234.5,256.06c.98.11,1.33.62.79,1.66-1.08-.21-1.28-.4-.79-1.66ZM238.24,255.49c.47-1.14.35-1.14,1.13-1.92,1.49-1.49.74-1.24,2.52-2.58,1.25-.95.47-.69,2.27-2.57l1.34-1.22c1.5-1.41,11.41-9.36,12.68-9.81-.82,1.3-1.33,1.95-2.58,2.68-.69.41-.52.2-1.07.92-2,2.68-1.31.3-2.18,2.86-.38-.31.46-.89-.98.17l-2.48,2.41c-2.57,2.21-2.9,2.74-5.27,4.49-.36.27-1.38,1.08-1.74,1.41-1.79,1.67-.2.91-3.65,3.16h0ZM254.42,253.16c.02.89-.16,2.08-.16,3.06l-1.71-.98.3-2.59c.09-1.57.05-3.32,1.04-4.38.57,1.91.82.35.77,2.23-.02.87-.2,1.7-.24,2.65h0ZM257.54,259.5c-2.55-1.19-.76-3.46-1.15-8.43.82.82.81.69,1.22,1.08.04.02.1.11.12.15.26.42.74,5.72-.2,7.19h.01ZM260.39,255.15c1.81,1.33,1.18,1.3,1.28,3.66l.33,4.61c-2.36-.48-2.13-2.52-2.14-3.66-.01-1.33.16-3.84.53-4.61h0ZM264.17,264.5l-.24-4.96c2.05,1.17,1.75,1.6,1.87,3.69l.09,2.53c-1.81-.09-1.69-.26-1.72-1.26h0ZM267.12,267.43c.16-.02.48.16,0,.41-.29.15-.41-.33,0-.41ZM274.33,269.8c1.6,2.72-2.72,5.67-4.39,2.62-.46-.83-.56-2.14.3-2.98.14-.14.52-.38.71-.46,1.17-.51,2.76-.24,3.38.82h0ZM260.89,234.24c.81-.11.74-.12,1.23.45-.57.87-.95.63-1.88.63l.66-1.07h-.01ZM271.25,209.57c.82-.56,1.41-.4,1.69.73-.95.55-1.23.53-1.69-.73ZM273.69,206.71c-.38-1.18-.48-1.08-.41-2.19.15-2.1-.25-1.43.21-3.6.32-1.54-.1-.84.02-3.42l.21-1.8c.2-2.05,2.49-14.54,3.16-15.72.24,1.51.27,2.34-.19,3.71-.26.76-.26.5-.2,1.39.24,3.32-.81,1.09.22,3.6-.5,0-.24-.98-.63.77l-.3,3.45c-.5,3.35-.4,3.97-1.05,6.84-.1.43-.33,1.72-.38,2.19-.25,2.43.45.82-.68,4.77h.02ZM284.41,194.36c.6.66,1.24,1.67,1.88,2.42l-1.93.38-1.48-2.16c-.95-1.25-2.14-2.54-2.07-3.99,1.67,1.07.84-.27,2.05,1.19.55.67.95,1.41,1.56,2.16h-.01,0ZM290.92,197.1c-2.72.77-2.83-2.12-6.39-5.62,1.15.09,1.07,0,1.64.02.05,0,.15.02.2.04.47.15,4.3,3.83,4.56,5.57h-.01ZM290.22,191.94c2.23-.19,1.74.21,3.36,1.93l3.27,3.26c-2.1,1.18-3.26-.51-4.02-1.36-.88-.99-2.39-3.01-2.62-3.83h.01ZM299.21,196.54l-3.42-3.6c2.31-.46,2.37.06,3.84,1.57l1.72,1.85c-1.43,1.12-1.45.91-2.13.17h-.01,0ZM303.35,196.82c.1-.12.47-.2.27.31-.11.3-.53,0-.27-.31ZM310.36,193.9c2.99,1,1.66,6.06-1.6,4.85-.89-.33-1.82-1.26-1.72-2.44.01-.2.15-.63.24-.82.55-1.14,1.93-1.98,3.1-1.6h-.02ZM276.91,175.81c.53-.61.48-.58,1.22-.47.14,1.03-.31,1.1-1,1.7l-.21-1.24h-.01ZM277.1,148.52c.29-.94.84-1.2,1.77-.48-.4,1.03-.62,1.18-1.77.48ZM277.22,144.74c-1.04-.67-1.05-.55-1.69-1.45-1.19-1.74-1.09-.95-2.08-2.94-.71-1.4-.61-.6-2.12-2.69l-.95-1.54c-1.13-1.72-7.17-12.89-7.39-14.23,1.14,1.03,1.69,1.66,2.18,3.01.27.76.11.56.72,1.22,2.27,2.44.05,1.35,2.43,2.67-.37.32-.79-.61,0,.99l1.93,2.88c1.71,2.91,2.17,3.35,3.47,5.99.2.41.82,1.55,1.08,1.96,1.33,2.06.86.36,2.45,4.15h-.04v-.02ZM277.81,128.41c.88.14,2.02.52,2.99.71l-1.26,1.51-2.49-.76c-1.52-.37-3.26-.64-4.13-1.81,1.98-.22.48-.74,2.33-.36.84.17,1.64.5,2.57.71h0ZM284.61,126.46c-1.62,2.31-3.53.12-8.51-.37.95-.66.83-.67,1.28-1,.04-.02.12-.07.17-.1.46-.19,5.75.29,7.04,1.48h.02ZM280.84,122.89c1.62-1.54,1.49-.93,3.83-.61l4.59.5c-.89,2.23-2.86,1.65-3.98,1.46-1.31-.22-3.74-.84-4.44-1.35h0ZM290.72,120.83l-4.92-.66c1.51-1.81,1.88-1.44,3.98-1.18l2.5.36c-.41,1.76-.56,1.61-1.56,1.46h0v.02ZM294.13,118.45c0-.16.24-.45.41.07.1.31-.41.35-.41-.07ZM297.75,111.8c2.95-1.09,5.1,3.68,1.8,4.79-.89.3-2.21.16-2.88-.82-.11-.16-.29-.58-.33-.78-.3-1.23.26-2.75,1.41-3.19h0ZM260.35,118.67c.04-.81,0-.76.66-1.13.74.72.45,1.05.29,1.96l-.94-.83h-.01ZM110.32,201.82c1.22,2.06,5.62,8.7,7.29,10.61,3.22,3.69,3.5,5.62,6.71,8.55,10.69,11.6,10.2,11.02,16.19,20.12l.48.72c1.56,1.81,3.09,4.17,4.45,6.77l1.8,2.73c2.37,3.5,2.38,11.29,4.5,14.99.6,2.02,2.06,2.67,3.98,2.48.76-.16,1.43-.36,1.85-.55l.74-.33v1.6c0,.11,0,.21,0,.32h0c.11.78.31,1.61.55,2.5-2.91,1.13-8.13,1.79-10.77-.53-1.77-1.56-1.62-6.17-1.98-8.47-.76-4.82-2.75-9.63-4.96-13.68-1.24-2.26-2.41-3.93-3.37-5.05l-19.75-22.88c-5.47-6.34-11.17-16.33-14.15-24.07-2.67-6.93-4.36-10.91-5.21-18.49-.79-7.09-.5-11.89.99-18.39.92-3.99,1.66-6.45,3.66-9.99,4.59-8.15,13.08-14.39,21.34-16.99,3.06-.95,6.24-1.45,9.41-1.53v.11h0v.12h0v.12h0v.17h0v.14h0v.15h0v.14h0v.32h0v.15h0v.14h0v.15h0v.33h0v.16h0v.15h0v.48h0v.16c.12.16.29.46.46.83h0v.02h0v.02h0v.02h0v.02h0v.02h0v.02h0v.02h0v.02h0v.02h0v.02h0v.02h0v.02h0v.02h0v.02h0v.02h0v.05h0v.02h0v.02h0v.04h0v.05h0v.02h0v.02h0v.04h0v.05h0v.04h0v.05h0v.04h0v.04h0v.04h0v.04h0v.05h0v.02h0v.02h0v.04h0v.05h0v.02h0v.02h0v.04h0v.05h0v.02h0v.02h0v.04h0v.05h0v.04h0c-9.14-.19-18.11,3.53-24.52,11.13-.53.63-1.12,1.65-1.55,2.47-2.6,4.88-4.36,8.9-5.33,13.17-.89,4.77-.99,8.68-.36,14.31.81,7.17,2.6,11.33,5.06,17.73.55,1.41,1.44,3.41,2.36,5.37h0l.17.09-.02.13ZM185.17,231.21l.67-.69c2.27-.63,1.49-.68,1.85-2.23-1.75,1.07-1.76.82-2.52,2.91h0ZM189.34,236.52l1.92-1.81c1.36-1.38,1.23-.89,1.85-2.23-2.86.68-4.1,1.55-3.77,4.03h0ZM198.44,237.06c2.02-.52,2.84-1.31,3.25-3.43-1.81.71-.76.22-2.1,1.67-.84.92-.64.25-1.15,1.76ZM190.17,240.84c.92-.62.73.89,1.56-.45.21-.35,1.39-2.88,1.48-3.29-1.05.6-2.53,2.08-3.04,3.73h0ZM195.87,235.62c1.66-.89,3.92-2.95,4.58-4.38-2.99.26-2.72,2.22-4.58,4.38ZM207.4,223.92c-1.28,1.09-2.63,2.31-3.61,3.74.83-.35,1.24-.17,2.1-.76,1.22-.83,1.25-.94,1.51-2.99h0ZM202.66,224.21c2.1.19,5.36-2.76,5.37-5.64-1.62.83.17-.3-1.46,1.35-1.34,1.34-3.34,2.6-3.91,4.29h0ZM212.03,218.92c2.03-1.22,1.95-1.24,3.16-2.52,2.67-2.89,1.81-1.6,3.4-5.11-1.24.87-2.44,1.67-3.41,2.99-1.24,2-2.85,3.53-3.15,4.64h0ZM221.63,202.76l-3.06,5.21c.52-.48,1.61.05,2.19-1.13.42-.84.67-3.05.87-4.08h0ZM223.46,201.5s1.71-1.35,1.74-1.44c.71-2.14-.11-3.22-.16-3.31l-1.57,4.75h0ZM229.58,188.37l-1.26,4.2c.87-.76,2.43-2.41,1.26-4.2ZM225.49,191.48c.93-1.65,2.37-4.48,3.3-6.48,1.64-3.55.17-3.97.02-8.08-.36.37-1.35-.62-.95,4.3.47,5.74-.74,1.48-1.7,6.76-.22,1.23-1.26,1.64-.67,3.5h0ZM229.59,170.3c.17-1.13-.12-2.01-1.18-2.53.05.52-.17,2.08,0,2.42.17.36,1.04-.16,1.19.1h-.01ZM228.07,162.94c-.79,1.25-1.1-1.75-.53,1.97.11.71.48,1.19.68,1.56,1.15-.99,1.54-2.1-.15-3.53h0ZM225.29,162.63c-.69-1.34-.94-1.45-2.42-2.17l.73,2.28c.76.56.57-.73,1.69-.11h0ZM225.3,159.06c-.56-1.92-.71-1.54-1.88-2.83l-.42.25c.06.07.36,1.61,2.31,2.58h0ZM220.26,155.09c.09,1.43.56,1.33,2.17,1.97-1.28-1.85-.17-1.98-2.17-1.97ZM218.39,151.04l-.31-.11c-2.26-.47-.6-.24-.97.29.73.45,1.71,1.15,2.65,1.44l3.41,1c-1.67-1.88-1.93-1.03-3.58-1.74l-1.2-.87h0ZM214.32,151.88c.07,1.74.12,1.22.12,2.18l1.29.45c1.33.74.81-.94,1.36-1.62-.78-.61-1.39-.71-2.78-1h.01ZM216.54,158.09c1,.4.84.61,2.26.82.27-.12,1.26-.71,0-1.96-.2-.2-1.13-.52-1.46-.56-1.07-.61-.2.25-.81,1.71h0ZM216.95,159.75c.5,1.77-.45,2.73,2.17,3.09,0-2.72.47-3.19-2.17-3.09ZM224.19,164.73c.24,1.23.45,1.69.77,2.84,1.07,3.77.61,2.07,1.61,2.75-.16-3.05-.02-5.65-2.38-5.59h0ZM225.37,180.62c.71-2.22,1.66-5.11.17-6.53-.14,1.87-.83,5.02-.17,6.53ZM221.91,178.23c.98-1.18,1.28-3.46.07-4.64-.57,2.01-.58,2.8-.07,4.64ZM217.46,163.47c.55,2.72.19,2.43,2.41,3.46-.42-2.42-.11-2.88-2.41-3.46ZM219.95,170.64c-.33-1.13-.2-1.76-1.92-1.46.3,1.75-.53.77,1.92,1.46ZM218.52,176.49l.67-.17c.16-.72.33-1.88.33-2.76,0-1.77-.1-1.36-1.56-1.83-.42,1.13-2.02,4.51.56,4.77h0ZM214.05,183.46l2.26,2.58c.21-1.34-.2.24.24-.93l1.22-2.7c.93-2.14,1.22-1.77,1.02-4.7-1.14-.48-1.24-.61-2.27-1.07-.38,2.57-1.33,4.22-2.45,6.82h-.02ZM217.6,190.69c1-2.99,6.06-9.53,3.32-11.85-.17.3-3.96,9.53-3.69,10.95.12.72.37.91.37.91h0ZM218.98,195.01c1.52-.73,5.57-7.58,5.34-10.08-4.25,2.94-3.22,4.5-5.34,10.08ZM218.14,202.92c1.52-.73,3.98-5.02,4.41-6.39-4.25,2.94-2.29.82-4.41,6.39ZM212.45,204.92c2.07-2.34,4.29-4.3,4.51-6.91-.91,1.75-4.1,4.07-4.51,6.91h0ZM214.02,208.52c1.72-.33,2.9-3.19,3.09-5.68-1.25.92-2.58,3.32-3.09,5.68ZM204.85,212.22c1.23-.66,2.53-1.72,3.57-2.45,1.35-.94,1.81-1.4,2.47-3.27-2.49,1.93-4.39,3.07-6.04,5.74h0v-.02ZM209.17,213.2c2.14-.82,2.94-.67,3.5-3.72-.67.66-1.25.37-2,1.07-1.05.99-.76,1.38-1.5,2.65h0ZM203.73,217.96c2.76-.55,2.64-1.87,4.55-3.17-.67-.76.78-1.6-1.65-.72-1.46.53-2.36,2.69-2.9,3.89h0ZM194.8,226.07c1.81-.91,3.88-1.09,4.79-2.5,2.74-4.25,2.63-3.91,1.82-4.69-1.69,1.96-5.72,5.02-6.62,7.19h0ZM197.26,220.02c2.29-.14,5.38-3.53,5.37-5.64-1.62.83.17-.3-1.46,1.35-1.34,1.34-3.34,2.6-3.91,4.29h0ZM197.84,212.11c-1.38.88-1.43,1.75-2.89,2.75-2.01,1.4-3.05,1.31-6.25,5.33l-2.84,3.52c1.15-1.28,2.83-1.77,4.29-2.96,2.41-1.97.97-2.47,4.72-5.27-.15,1.07.22,0-.27,1.22-.29.67-1.13.36-.27,1.08,1.82-3.04,6.34-4.23,7.23-9.21-.38.32-.86.61-1.45,1.22l-1.38,2.06c-.06.88.46-1.08.11.58-.22,1.02-.11.53-.95,1.07l-.06-1.36h0v-.03ZM185.52,224.14l-2.59,3.21c-.27.42-.27,1.08-.45,1.39l5.18-4.66c-1.5.57-1.83.51-2.78,1.29.17-.47.38-.88.64-1.23h0,0ZM188.62,227.63c2.34-.79,6.08-2.88,6.03-5.84-1.02.76-2.6,2.13-3.68,2.91-1.18.86-1.57,1.48-2.34,2.93h-.01ZM194.02,231.84c1.96-1.23,4.64-2.93,5.19-5.22-1.02.76-2.44.93-3.51,1.71-1.18.86-.92,2.06-1.67,3.5h-.01ZM103.82,161.76c-.31,1.36-.6,2.57-.81,3.87.07-.41.16-.82.25-1.22.16-.86.35-1.72.55-2.64h.01,0ZM177.01,258v-.06c.02-.1.04-.2.05-.3,2.08-1.55,6.36-5.64,7.12-6.53,1.03-1.2,1.51-3.11,2.47-4.18-2.54,1.61-6.94,6.11-9.31,9.44.3-1.02.32-2.62.27-4.19,1.65-1.77,3.43-3.92,3.97-4.53,1.03-1.2,3.76-5,4.71-6.06-2.12,1.34-6,5.58-8.74,9.11l-.04-.64c0-.09,0-.19,0-.27-.05-.83-.09-1.52-.07-1.86.04-1,.2-1.31.32-1.56.07-.15.15-.29.2-.45,2.18-3.07,6.47-7.27,8.38-9.65,1-1.25,1.91-2.93,1.18-3.43l-1,1.19c-.91,1.19-1.41,2.58-3.04,3.67-.66.43-3.78,3.87-5.58,5.91-.22-1.04-.16-2.39,0-3.82l4.35-4.28c1.36-1.38.69-2.63,1.31-3.96-1.34.82-4.03,4.5-5.54,7.12l.09-.69h0c.06-.55.12-1.08.21-1.92.05-.45.07-.89.1-1.33,1.96-2.32,1.95-3.4,2.67-4.8-.5.42-.93.57-1.59.91.06-.78-.12-1.52-.69-2.16,1.67-1.86,2.94-3.68,4.3-4.75,1.61-1.25,3.19-3.63,4.74-5.52,1.83-2.22,2.54-2.12,3.87-3.72.77-.93.93-1.56,2.16-2.11l1.7-.67c1.36-.76,1.95-2.01,3.2-3.1,3.42-2.99,1.26-1.87,6.65-6.3l2.16-2.99.47-1.92c4.31-.42-1.08.19,1.65,1.02l3.74-6.72c1.03-2.16,3.2-3.78,1.02-6.93l-5.91,10.04c-2.23,3.76.83,2.03-1.67,3.37l-.26-.38c-1.66,3.07-4.7,5.07-6.08,6.79-1.71,2.16-.58,1.57-3.24,3.05-2.24,1.25-.97.76-1.81,3.35-.91.31-.71.5-.68-.42l.43-1.22c-1.96.67-4.58,5.17-5.86,6.46-1.3,1.31-2.84,2.54-3.84,4.13-1.6,2.54-3.51,4.12-7.19,5-.02-.32-.04-.66-.05-.99l9.05-8.46c4.93-3.65,1.96-3.36,5.7-6.78l10.4-10.55c3.24-3.91,11.98-15.13,10.59-19.29-2.55-.09-2.33,1.19-3.16,3.98-.53,1.77-1.31,2.89-2.06,4.61-1.44,3.35-8.9,14.68-11.15,16.06l-4.48,2.23c-.25.2-3.17,3.48-3.42,3.48l-.14-.43c4.12-3.4,2.64-2.76,6.74-6.56l5.77-7.63c.57-.67,1.02-.98,1.75-1.8l6.12-10.35c1.09-2.42,1.92-2.98,1.43-4.54-.76-1.25-3.55-.74-5.77-2.78,2.01.06,3.14.29,4.71.76,2.18.24,4.45,1.91,4.45,1.91.14-.72.37-.43.32-2.08-1.1-.66-1.96-1.65-3.46-2.48-.72-.4-3.14-1.28-3.91-2.26,4.98.94,4.59,1.46,8.26,2.81.21-1.45.25-2.1-.66-2.85-2.22-1.85-6.32-1.38-7.79-3.98l5.94,1.13c1.28.84,1.03.79,2.38,1,.66-2.55-.12-1.96-1.1-2.23-2.1-.78-3.09-.41-4.59-3.15l6.22,1.96c-.79-2.03.35-2.29-2.23-3.34-2.99-1.22-5.37-1.28-7.33-2.22,2.21-.94,4.81.14,7.32.47.47.31.11.52,1.76.91-.24-2.55-.36-2.7-1.24-2.85-1.98.14-3.35-.88-5.18-1.28-1.66-.36-3.26.21-5.38-.05,3.48-1.65,7.95-.51,11.56.38-.29-2.17.07-1.77-.29-2.17-2.1-.31-4.12-1.07-6.31-1.34-2.07-.26-4.15.05-6.31,0,3.03-1,6.86-1.25,10.32-.51.5,0,.99.72.42-.98-.51-1.62.72-.97-4.51-2.22,3.19-.25,3.77.58,6.34.58l1.5-.51-1.86-1.36-3.25-.3-2.12-.52c-3.14.48-5.5-.2-9.29.4,3.19-1.09,3.1-1.23,6.55-1.56,1.51-.15,2.06-.1,3.55,0,3.21.24,2.6-.07,3.22-.74-2.27-1.53-5.69-1.38-9.05-1.19h.02s0-.02,0-.02h0v-.02h0v-.02h.02v-.02h.03v-.03h0v-.02h0v-.02h.04v-.02h.02s.02-.02.02-.02v-.02h0v-.02h0l.02-.02h0l.02-.02h0l.02-.02h0v-.02h.02v-.02l.04-.04h0s.02-.03.02-.03h0l.02-.02h0l.02-.02h0v-.02h.04v-.02l.02-.02h0l.02-.02h0v-.02h.02v-.02l.02-.02h0l.02-.02h0v-.02h.02v-.02l.02-.02h0l.02-.02h0v-.02h.02v-.02l.02-.02h0l.02-.02h0v-.02h.02v-.02l.02-.02h0l.02-.02h0v-.02h.02v-.02l.02-.02h0l.02-.02h0v-.02h.02v-.02l.02-.02h0l.02-.02h0v-.02h.02v-.02c4.07-.14,8.51.77,11.29,2.03,1.03-.02.84-.31.79.62l.31-.26c1.45.3.72-.06.94.73l.17-.09c.82.66.51.52,1.46.77.79.21.63-.06.63.66,2.19.6.66.91,1.81.35-2.76-1.61-.88-1.82-5.06-2.98-2.01-.56-3.37-1.62-5.52-2.06-1.82-.36-3.96-.64-6.08-.84h0v-.04h0l.16-.27h0v-.04h.02l.02-.04h0v-.04h.02v-.04h0v-.05h0v-.04h0v-.02l.05-.07h0v-.02h0v-.05h0v-.02h.02v-.04h0v-.02h0v-.05h0v-.02h0v-.02h0v-.05h.02v-.02h0v-.05h0v-.04h0v-.02h0v-.05h0v-.04h0v-.02h.02v-.04c2.44.15,4.71.42,6.15.02-1.7-.62-3.65-.84-5.5-.98v-.02l.02-.02h0v-.05l.02-.02v-.02h0v-.06l.02-.02h0v-.05l.02-.02v-.02h0v-.06h.02v-.06l.02-.02h0v-.05l.02-.02h0v-.04h0v-.02l.02-.04h0v-.04h0v-.04h0v-.02h0v-.04h0v-.02h0v-.02h0v-.04h0v-.05h0v-.02h0v-.04h0v-.04h0v-.05h0v-.05h0v-.04h0v-.02h0v-.04h0v-.05h0c.61,0,1.2.02,1.79,0,0-.02.02-.04-.06-.06-.48-.16-.99-.3-1.52-.46v-.02h0v-.04l.02-.02h0v-.07h0v-.04l.02-.04h0v-.04l.02-.04h0v-.07h0v-.02l.02-.04h0v-.07h0v-.02l.02-.06v-.04h0v-.02l.02-.04h0v-.07h0v-.02l.02-.04h0v-.07h0v-.04l.02-.04h0v-.07h0v-.07h0v-.12s0-.04,0-.04v-.02h0v-.05l.02-.02h0v-.07h.02v-.05l.02-.02h0v-.07h.02v-.05l.02-.02h0v-.09h.02v-.04l.02-.04h0v-.09h.02v-.05l.02-.04h0v-.09h.02v-.05l.02-.04h0v-.1h.02v-.05l.04-.05h0v.02h0v.02h-.02v.02h-.03v.03l-.02.02h0l-.02.02h0v.02h-.02v.02l-.02.02h0l-.02.02h0l-.02.02h0v.02h-.02v.02l-.04.02h0l-.02.04h0l-.02.02h0l-.02.02h0v.02l-.05.04-.04.04h0l-.04.04h0l-.02.04h0v.04l-.04.02h0l-.04.04h0l-.04.04h0l-.02.04h0l-.02.04-.02.02h0l-.04.05h0l-.04.04h0l-.04.04h0l-.02.04-.02.02h0l-.04.05h0l-.05.04h0l-.04.04-.05.04-.02.02h-.02l-.1.1h0l-.05.04h0l-.04.04-.1.07-.05.04h0l-.05.04h0l-.04.04-.02.02-.02.02-.04.02h0l-.05.05h0l-.05.04h0l-.04.04h-.02l-.02.04-.05.04-.05.04h0l-.05.04h0l-.05.04c-.19-.05-.37-.1-.56-.14v-.02h.02v-.05h.02l.02-.04h0v-.04h0v-.06h.02v-.05h.02l.02-.04h0v-.04h0v-.06h.03v-.05h.02l.02-.04h0v-.04h0v-.06h.03v-.05h.02l.02-.04h0v-.04l.04-.04v-.02l.02-.02v-.04h.02l.02-.05h0l.02-.05h0v-.05l.04-.05v-.04h.02l.02-.05h0l.02-.05h0v-.07s.03-.02.03-.02v-.04h.02l.02-.06h0l.02-.05h0v-.07s.03-.04.03-.04v-.04h.02l.02-.06h0l.02-.06h0l.02-.06v-.02l.02-.04v-.04l.02-.02.02-.05h0l.02-.07h0l.02-.06v-.02l.05-.11.02-.06h0l.02-.07h0l.02-.07v-.02l.02-.05v-.04l.02-.04.02-.06h0l.02-.09h0l.02-.07v-.02l.02-.05v-.05l.02-.04.02-.06h0l.04-.1h0l.04-.09v-.02l.04-.06v-.05l.04-.05.02-.07v-.02l.05-.1h0v-.02h0v-.02h0v-.02h0c12.72,3.36,21.59,11.03,25.86,20.37h0c1.34,2.86,2.41,5.46,2.95,8.75,1.57,9.57,2.24,10.72,1.07,20.42-.73,6-3.07,13.53-5.44,19.03-1.97,4.59-5.91,11.32-8.58,15.32-2.7,4.05-5.75,7.4-8.55,11.16-2.37,3.17-7.76,9.15-10.79,11.82-8.34,7.35-11.48,10.6-21.64,17.39-2.27,1.52-4.38,2.88-6.43,4.14-.04-.1-.07-.19-.12-.27v-.02s-.06-.21-.1-.46c-.06-.45-.1-.97-.1-1.49s0-1.08.04-1.61c.02-.43.06-.81.11-1.07h0l1.34-.43.47-.32ZM161.66,160.29h-4.03c.47,1.34.86,2.18.67,4.61,1.26-.64,1.49-1.26,1.9-2.24l.92,2.21c.14-.2.26-.41.4-.62.06-1.3.11-2.63.15-3.97h0ZM176.32,160.48c.45-.42.91-.88,1.39-1.39h-.12s-.02.03-.02.03h-.04l-.06.02h-.1s-.02,0-.02,0h-.07v.03h-.06l-.05.02h0l-.07.02h-.02l-.05.02h-.06v.02l-.07.02h-.04l-.04.02-.07.02h0l-.06.02h-.02c-.09.33-.17.71-.26,1.1h0l-.04-.02-.04.06ZM135.34,139.43c-1.5-.1-2.96.05-4.05.89,1.25.15,3.09.41,5.19.81h0v-.05h-.03v-.03h-.02v-.02h0v-.02h-.02v-.02h-.02v-.03h-.02v-.03h-.02v-.04h0v-.02h0v-.02h0v-.02h0v-.04h0v-.04h0v-.04h0v-.02h0l-.02-.02h0l-.02-.05h0v-.04h0l-.02-.05h0v-.04h0v-.02h0v-.02h0v-.02h0v-.04h0v-.04h0v-.02h0v-.02h0v-.02h0l-.02-.06h0v-.04h0v-.02h0v-.04h0v-.02l-.02-.04h0v-.02h0v-.04h0v-.02l-.02-.04h0v-.04h0v-.02h0v-.06h-.02v-.04h0v-.02h0v-.04h0v-.02h0v-.04h0v-.02h0v-.04h0v-.02h0l-.78-.07-.07-.09ZM142.35,227.18h0l.14.07s-.09-.05-.14-.07h0ZM142.48,227.26c1.18.72.43,2.24,3.84,5.06,2.95,3.78,10.65,19.34,10.9,19.52-2.67-10.86-10.19-22.29-14.74-24.57h0ZM126.55,210.91c-.57-1.65.36-.17-.91-1.64l-2.98-4.14c-1.3-2.03-2.54-3.6-3.87-5.49-3.46-4.95-5.05-11.78-6.3-13.15.09,4.58,3.41,10.41,5.43,13.64,2.16,3.46,5.99,9.92,8.63,10.77h-.01.01ZM154.63,157.27l-.78-1.17-2.06-3.07s-.09-.05-.14-.09h0c-.09-.05-.19-.1-.27-.15h-.02l-.12-.07h0s-.1-.04-.15-.06h0s-.1-.04-.15-.06l3.74,4.67h-.05ZM150.58,152.49h0s-.1-.04-.15-.05h0l-.14-.04h-.04l-.12-.04h-.02l-.14-.02h-.1l-.04-.02h-.06c2.57,2.31,2.38,3.61,4.88,5l-4.05-4.79h0l-.02-.04h0ZM142.48,146.05c-3.63-1.96-7.45-3.47-10.01-3.37,2.74.84,7.17,3.27,10.27,5.02h0v-.1h0v-.09h0v-.1h0v-.1h0v-.1h0v-.07h0v-.1h0v-.1h0v-.1h0v-.1h0v-.1h0v-.1h0v-.1h0v-.09h0v-.1h0v-.09h0v-.05h0l-.21-.07h-.01ZM191.23,202.64c.52.21-.78.77.91.02.38-.17.99-.76,1.22-.98,3.82-3.71,10.89-11.56,12.08-16.81-1.54.51-.87.45-1.72,2.12-1.43,2.8-3.14,5.13-5.17,7.34-1.07,1.17-.55,1-1.93,2.1l-5.29,5.03c-.98,1.4-.19.95-.09,1.17h0-.02ZM187.51,213.28l1.85-3.1c-.73.69-1.07.97-1.62,1.33-2.83,1.83-.99,1.19-2.65,2.36-4.45,3.1-1.52.88-5.72,5.01-.56.63-.92,1.08-1.1,1.38,0,.15,0,.3-.02.45,1.17-.24,8.82-6.61,9.29-7.41h0l-.02-.02ZM113.21,199.02c-2.88-7.76-7.93-13.14-7.77-24.54-.91,1.82-.74,4.82-.09,6.98.38,1.28.86,2.41,1.03,2.99,1.14,3.89,1.22,5.34,3.38,9.57,1.3,2.52,1.9,3.92,3.45,5h0ZM181.34,214.01c2.54-.83.38-.15,2.34-1.95,2.22-2.03,3.89-4.95,5.08-6.04-.41.27-1.13.11-1.61.56-3.37,3.05-4.82,4.38-5.81,7.43h0ZM122.5,211.58c-3.57-5.02-2.22-1.82-5.15-6.83-1.9,1.67,3.1,5.34,4.7,7.27,2.42,2.9,2.85,3.94,6.12,6.1-1.61-4.56-3.62-3.65-5.67-6.52h-.01v-.02ZM188.23,200.69c2.36-.88,8.26-8.05,10.17-10.9.58-.86.94-1.74,1.34-2.55-2.86,3.92-8.89,8.74-11.52,13.45h.01ZM199.75,187.24c.31-.63.64-1.24,1.1-1.81-.27.58-.64,1.18-1.1,1.81ZM148.92,245.81c.73.55,3.34,6.27,4.14,7.63l1.65,8c1.05-9.96-3.37-14.41-5.79-15.63h0ZM108.68,179.26l1.33-14.93c-1.49,3.19-3.15,11.67-1.33,14.93h0ZM138.13,215.53c-1.12-1.09-.93-1.61-2.29-2.54.68,3,7.14,9.01,9.55,11.44-1.03-2.38-1.19-1.08-2.39-3.03-.92-1.48-.93-1.62-2.27-3.1-1.17-1.28-1.5-1.7-2.59-2.78h-.01ZM150.05,158.36c-1.22-2.94-5.69-6.17-8.58-7.77.41,1.5,8.16,7.51,8.58,7.77ZM150.68,230.6c.62,1.81,1.26,2.89,3.16,5.33.93,2.39,1,3.5,2.76,5.89-.94-3.5-2.68-9.46-5.93-11.22h0ZM105.31,169.54c2.27-9.62,4.3-9.45,6.53-13.87l-1.19.77c-2.74,2.29-5.37,9.72-5.34,13.11h0ZM139.67,230.96c1.51.84,2.7,2.47,5.01,4.97,1.22,1.31,5,9.4,3.19,6.4l-8.2-11.37ZM112.69,151.47c.67-.35,1.34-.52,2.11-1.18l3.53-2.7c1.08-.81,1.07-.58,2.34-1.34-2-.71-4.71,1.98-6.24,3.26-1.85,1.55-.83,0-1.75,1.96h.01ZM114.36,156.94l3.37-2.81c.62-.53.79-.77,1.43-1.22,1.6-1.13.74.38,1.49-1.62-3.47.83-5.46,3.77-6.11,5.23-.05.11-.11.29-.17.42h-.01ZM132.43,219.9l-1.93-2.02c.26,2.36.33,1.59,1.62,2.8,1.03.97,1.05,1.7,1.81,2.68.61.78.35.35,1.15,1.04.48.42.69.68,1.13,1.12.6.6.94.78,1.26,1.13l-3.06-4.27c-.46-.55-.63-.68-1.04-1.19-.41-.51-.46-.69-.95-1.28h0ZM137.49,226.63c.16.17.32.38.51.72l-.51-.72ZM127.65,207.28l-3.15-5.77c-.64-.97-1.05-.94-1.36-1.72.41,2.36,1.33,4.27,2.83,6.11,1.15,1.41.72.53,1.69,1.39h-.01ZM175.6,163.92c.97-1.09,1.75-2.14,1.91-2.83-.47.22-1.02.61-1.57,1.09-.12.56-.24,1.13-.33,1.74h0ZM133.57,207.72c-.84-2.03-1.02-1.08-2.13-2.88-.62-1-1.35-2.13-1.82-3.17-.66,1.95,1.3,5.13,3.96,6.04h0ZM146.64,219.56c.37.45.6,1.15,1.17,1.96l4.09,4.74c-1.04-3.45-3.31-5.16-5.26-6.7h0ZM135.13,217.49c.48,1.44,4.54,7.48,6.72,8.52l-5.19-6.77c-1-.98-.86-.46-1.53-1.76h0ZM179.79,159.72l1.65-1.2h-.69c-.33.38-.62.76-.84,1.13h0l-.11.07h0ZM133.42,214.41l-.05-.05.05.05ZM133.37,214.36c-.66-.74-1.65-3.76-3.97-5.33.4,2.72,2.11,3.32,3.97,5.33ZM120.36,195.72l-2.62-5.75c0,1.49.2,2.08.68,3.41.97,2.68.99,1.93,1.95,2.34,0,0-.01,0,0,0ZM127.9,211.59c-1.49,1.39,2.12,3.94,2.99,4.41-.81-1.03-.68-1.2-1.55-2.37-.52-.71-.92-1.36-1.44-2.03h0ZM151.53,163.55c1.8-1.04,2.94-1.74,3.36-3.29-2.33,1.04-2.49,1.6-3.36,3.29ZM157.04,173.09c.52-.32.33-.16.84-.64l2.5-3.77c-2.12,1.09-2.53,2.19-3.35,4.41h.01ZM204.5,181.5c.09.06-.36,1.98,3.35-.73l-.64-.25c-1.13-.02-1.46.31-2.7.98h-.01ZM146.43,224.19c.46,2.01,1.29,3.34,2.85,3.81-.76-1.82-.37-.87-1.43-2.08-.6-.68-.64-.94-1.43-1.72h0ZM144.7,216.69l-2.48-3.42c-.89-1.03-1.72-2.48-2.67-3.88.74,3.09,3.29,4.98,5.15,7.3h0ZM118.5,143.46c1.98-.26,2.55-.32,3.65-1.76-2.13.41-2.38.53-3.65,1.76ZM145.14,158.02l-.17-1.02c-.77-.79-.27-.98-2.81-2.43,1.22,3.26,1.41.45,2.99,3.46h-.01ZM114.16,162.83c.71-.67.72-.91,1.35-1.56,1.04-1.08.72-.31,1.38-1.69-1.6.79-2.13,1.23-2.73,3.25ZM182.6,161.58c1.67-.86,1.7-.72,2.59-2.28-.98.48-1.3.05-2.59,2.28ZM201.7,171.4l4.02-.15c-.38-.22-3.87-1.07-4.02.15ZM200.61,167.37l3.63-.24c-1.12-.67-2.72-.72-3.63.24ZM115.97,186.32l-.61-2.96s-1.51.36.61,2.96ZM114.96,180.45l-.38-4.13c-.53,1.43-.38,2.93.38,4.13ZM206.05,164.03c1.75.02,1.31.36,2.63-.32-1.29-.46-1.12-.87-2.63.32ZM153.44,165.88c1.45-.6,1.22-.78,1.91-2.14-1.71.88-1,.63-1.91,2.14ZM125.72,198.39c-.57-2.62-.56-2.07-1.66-2.93l1.66,2.93ZM111.21,162.01l1.96-2.55c-1.64.78-1.59.79-1.96,2.55ZM200.71,174.94l2.6.26c-1.08-.83-1.19-1.08-2.6-.26ZM198.88,180.07c1.5-.35,1.04-.32,1.71-1.22-.92.3-1.77.41-1.71,1.22ZM152.18,170.84c1.9-1.92,1.65-1.35,2.47-3.27l-2.47,3.27ZM201.49,160.76l2.48-.35c-1.07-.46-1.69-.21-2.48.35ZM113.71,168.46c.51-1.83.04-1.72-.26-2.16l.26,2.16ZM176.19,167.6c1.19-.66,1.49-1.34,2.43-2.34l-2.43,2.34ZM155.05,265.77c.95-.09,2.13-.29,3.26-.56v-2.11c-1.23.91-2.22,1.82-3.26,2.67h0ZM160.48,261.74h0c0,.21,0,.4,0,.58,0-.19,0-.38,0-.58h0ZM160.47,262.34h0v.02h0v.04h0v.02h0v.04h0v.04h0v.04h0v.02h0v.02h0v1.97-2.23h0,0v.02ZM157.12,260.12c.1.19.6.19,1.3.06.02-.43.06-.88.09-1.33-1.1.56-1.49.94-1.39,1.26h0ZM160.6,259.62h.02c.05-.57.1-1.15.15-1.76h-.04c-.05.61-.09,1.19-.14,1.76h0ZM218.34,147.64l-4.18-1.38c1.35,1.9.86,1.54,3.45,2.38,2.12.12.94-.16,1.17.68l.11-.17c1.05.4,1,.36,2.22.82-1.35-1.12-1.59-.87-2.75-2.33h-.02ZM177.98,42.02l.09-.24c.74-3.72,1.79-14.94.32-18.45l.09-2.62c1.29,1.48.64.5,1.44,2.08l.07.95,1.04,3.24.17-2.33,2.78,5.68c1.15,2.29,1.83,6.46,2.6,8.58.95,2.63,1,3.96,1.43,6.67.15.92.46,1.51.4,2.53-.06,1.09.17,2.75,0,3.79-.16.92-.05,1.96-.19,2.88l-.47,3.5c-.27,1.71-1.18,3.43-1.72,5.08-.48,1.45-3.05,4.75-3.93,6.6l-1.13,2.55c-.78.11-1.61.25-2.47.42-1.03.2-2.12.43-3.25.69.02-.17-.06-.37.05-.5.5-.53,1.28-2.02,1.62-2.79.27-.62.48-.82-.06-.47-.15.83-1.38,1.79-1.38,2.39-.02.57-.31-.52-.19-.31,1.69-4.02,4.65-6.5,6.94-10.2.24-.41.41-.95.66-1.39,1.64-2.89,2.67-5.65,3.2-8.94l-2.43,6.92c-1.34,2.86-4.79,7.61-6.5,10.13.68-2.22,2.39-3.92,3.47-5.57,1.18-1.8,2.41-3.92,3.27-5.94-.62.26-.78.95-1.13,1.51-1.62,2.68-3.72,5.41-5.15,7.92-.11.22-.31.57-.47.79-.6.83-1.1,2.39-1.3,2.63.35-3.89,7.91-10.79,9.68-18.24l.73-3.36c-.51,2.07-1.93,6.35-2.9,7.8l-1.92,2.78c-.94,1.05-3.26,5.32-3.83,5.73l3.15-5.27c1.17-1.76,2.43-3.5,3.11-5.53l1.09-2.83c.72-1.35.6-3.07.67-4.31-.1.5-.22.93-.22,1.45,0,.19.04.29-.15.58-.47.76-.38,1.44-.77,2.31-.14.3-.25.48-.37.76-.45,1.07-.68,2.11-1.3,3.15-1.14,1.93-.43,1.31-1.85,2.57l.3.02c-.14.33-.26.58-.41,1.03-.17-.25,0-.46.06-.82-.43.22-.47.58-.99,1.29-1.17,1.57-.64,1.09-2.07,2.64-.43.52.1.05-.36.53-1.69,1.67-2.53,2.38-3.81,4.59-.74,1.28-1.49,2.57-1.79,4.03-.22.86-.33-.05-.51,1.33-.1.82-.46,1.28-.6,2.69-.98.24-1.95.47-2.89.68-.69-2.88-.84-6.72.43-9.26.24-.47.19-.42.27-.89.12.12.24.33.41.33-.72.51-.95,2.9-1.13,3.82-.31,1.7.04,2.94.1,4.61.25-.4.14-.73.1-1.23-.29-3.43.86-5.95,1.96-9.1.43-1.22.73-2.23,1.48-3.2l2.39-3.32c.31-.4.61-1.17,1.05-1.41-1.03,2.5-3.11,2.99-5.57,10.33l-.41,1.2s.05-.11.05-.09l.33-.55c-.12,2.07-1.5,4.71-.77,6.83.31-.67-.22-4.05,1.45-7.46,1.41-2.89,8.21-11.73,9.84-13.92.11,1.02-2.94,4.49-3.94,5.96-1.29,1.9-3.86,5.28-4.93,7.12-.27.53-.22.77-.51,1.25-.6,1.04-1.41,3.48-1.09,4.53.05.15-.11,1.22.06,1.57.37-1.13-.46-1.8.88-5.21,1-2.55.37-1.24,1.41-2.78.78-1.17,1.87-2.26,2.57-3.52l4-5.5c1.13-1.5,2.47-2.69,3.58-4.17.2-.27.25-.41.5-.69.16.71-.15.17.07.67.17-.36.11-.47.4-.74l-.42-.12c.73-1.38,1.34-2.21,1.56-3.94.21-1.61.36-1.38.52-3.52-.25,1.98-1.77,6.74-2.79,7.84l-1.59,2.11c.17-.62,1.5-2.13,2.11-4,.19-.57.42-.82.62-1.53.29-1,1.55-5.27,1.46-6.3-.05-.63-.09-.35-.16-.48-.38.91-.32,2.26-1.25,4.51l-1.3,3c-.24.48-.19.61-.68.74.55-.91,2.28-5.58,2.42-6.88.24-2.18.53-4.41.24-6.61-.1-.72.1-1.4-.2-1.81.22,2.89-.02,3.57-.2,6-.07,1.41-.69,2.27-.36,2.8l-.45-.14c.02,1.41-1.3,3.99-1.38,4.59-.42-.87,1.36-3.83,1.51-7.55-.1.27-.17.73-.27,1.13-.14.58-.27.5-.41,1.13-.19.84-.11,1.71-.57,2.48-.24-.43.77-4.81,1.08-5.55.71-1.7.63-3.19.38-5.22.02,1.6-.31,4.04-.69,5.32-.12.41-.56,2.11-.69,2.36-.38.66-.3,1.19-.86,2.74l-.78,1.69c-.12.35,0,.29-.17.61l-2.44,4.95c-.22-.35.15-.69.31-1.13,1.49-3.42,2.21-3.82,3.16-7.53.46-1.81,1.4-3.94,1.49-5.73.17-3.45.33-2.1.07-5.8-.14.68.04-.55-.04.22v1.88c-.15,2.76-.52,4.81-1.5,7.69-1,2.94-4.58,11.78-6.1,13.33-.38.4-.6.76-1.18,1.17,1.71-2.57,1.29-1,2.11-4.28l.17-.12s-.3.06,0,.17c.17.06.02.26,0-.15,0,0,0-.02,0-.02l.29-1.6c-.37,0-.06-.24-.33.29-1.13,2.32-.69,1.91-2.12,3.99-.29.45-.27.58-.66.99-.6.67-1.93,2.57-2.37,2.81.25-.82,2.5-3.57,3.1-4.38.91-1.29,3.01-5.79,2.36-7.07.16,1.38-2.23,6.14-2.88,7.05-1.05,1.51-2.43,2.72-3.43,4.31-1.23,2.06-3.21,5.47-3.48,7.8-.35,2.94-.68,7.89.2,10.34l.19.6-.26.05c-.66-1.93-.91-3.53-.71-6.79l.41-5.42c.4-2.22,1.55-3.38,1.74-4.28-.86.83-.97,1.29-1.54,2.49-1.07,2.21-.89,4.44-1.02,6.82-.04.69-.2,1.14-.25,1.79-.12,1.49-.11,3.71.11,5.64-.78.15-1.52.26-2.23.35-.22.02-.45.05-.66.07-.53-1.46-1.19-3.31-1.5-3.69l.47,2.37c.09.5.25.97.4,1.39-.16,0-.31.02-.46.02-.02-.53-.1-1.09-.4-1.5.06.48.1.99.16,1.5h-.3c-.06-.57-.11-1.04-.1-1.22-.07.25-.09.68-.06,1.22-.64,0-1.09-.1-1.28-.31-.79-.87-2.14-.93-3.03-.12-.24.22-.41.47-.53.76l-.26.61-.04.11c-.09.2-.16.38-.22.51-.04.09-.07.16-.11.21l-.04.05h0c-.06.09-2.19-.16-5.34-.53.51-1.71.78-2.27,1.57-3.99,1.12-2.45,5.84-7.93,6.21-9.57l-3.78,5.29c-.56.55-.12-.1-.4.27-.06.09-.2.46-.33.64-1.2,1.66-2.19,3.36-2.98,5.27l-.66,2.03-.47-.05c.12-.41.22-.73.3-.92l2.58-5.16c.95-1.86,4.04-5.41,5.21-7.58l5.05-7.91c.17-.45.2-.51.45-.86-.55.41-2.85,4.05-3.35,4.8-1.08,1.59-1.6,2.11-2.45,3.76l-1.07,1.23c.02-.79,3.45-5.57,4.09-6.45.37-.5.53-.51.47-1.23l-5.42,7.81c-.27.45-.6.78-.84,1.18l-.16-.35c.83-.66,1.38-1.92,1.93-2.8.67-1.07,3.17-4.18,3.22-5.08l-7.39,9.81c-.26.43-.88,1.67-1.39,1.77.68-1.05,1.64-2.72,2.45-3.63l3.14-4.33c.09-.36.1-.12-.04-.3l-4.18,5.33-1.36,1.66-.51.89c-1.91,2.23-1.8,3.07-2.45,3.89-.72.87-1.31,2.55-1.85,4.03-1.8-.21-3.74-.41-5.77-.57-1.22-6.98,2.22-10.75,7.65-16.96.87-.87,1.77-2.21,2.84-2.9,1.4-.91.86.53,1.48,1.43l.21-.24h0l12.92-13.92c.32,1.2,0,3.06-.42,5.13.4-.53.79-1.05,1.18-1.56.88-1.19.25-.98.92-1.4.15,1.03-.4,2.43-.61,3.42-.37,1.79.06.77-.78,3.2l-2.03,4.55c.02,1.07.21,2.01.67,2.73,3.05-7.02,8.21-12.87,10.28-22.01.35-1.51,1.05-5.99,1.54-6.79,1.8,1.8,1.71,7.79,2.86,10.65h0l-.04-.06h.06ZM185,85.08c.2.36.41.73.62,1.12.78.64.99,1.46,1.98,2.43l2.14,4.34c1.05-2.12,2.49-3.84,4.5-5.8.73-.71,1.81-1.33,2.54-2.07l.27.02h.16c1.57.16,3.15.32,4.7.45-1.8,2-3.56,4.4-4.28,5.64l-1.38,1.92-1.55,2.53c-.29.53-.41,1.46-.95,1.72,1.1-2.48,2.58-5.72,4.34-7.72.66-.74,1.3-1.53,1.75-2.43-1.39.61-3.17,3.71-3.92,4.84-1.67,2.54-3.17,5.36-4.14,8.28-.3.91-.88,1.3-.87,2.24-.22-.02-1.57,3.83-1.9,4.59-.1.21-.22.1-.55.66-1.29,2.28-3.32,4.36-5.46,5.72-.57.36-1.85.91-3.35,1.51-.31-3.05-.48-6.08-.55-8.94-.02-1.28-.02-2.54,0-3.77.29,1.13.66,3.48.46,4.66.36.27-.25-.01.15,0h.04c.1.89.1,1.71.14,2.72,0-.04-.02-.12-.02-.1-.1.33.05-.2-.21-.57-.1.21-.05.53-.12,1-.1.63-.22.64.16.98-.1-.25.06-.94.17-1.18.6-1.34.05-2.5.31-3.1-.24-.14-.27.14-.19-.16.47-1.65-.02-2.11-.35-3.87-.15-.78-.16-.2-.31-.74-.24-.88.3.26-.07-.82l-.14-.48c0-.31.02-.61.04-.92.3.64.47,1.49.58,2.05.37.2-.09.33.21-.06-.17,1.19.76,2.07.98,4.71.19-.21.38.17.14-1.35-.26-1.62-1.22-4.7-1.67-6.36-.05-.19-.1-.35-.16-.52.02-.32.04-.64.06-.97.16.33.3.68.42,1.04,1.03,3.19,2.55,7.05,2.06,10.4-.06.43-.17.82,0,1.09.42.06.29-.62.32-1.55,0-.46.19-.77-.16-1.25l.2-.04-.77-5.38-1.98-5.62c.02-.29.05-.57.09-.84l2.99,8.2-.27-.11c.63,2.39.56,4.31.63,6.6l.22-2.28c.31-3.31-1.56-9.52-3.45-13.56.24-1.83.53-3.42.91-4.65.33-1.14.55-1.82.58-1.9.07-.02.15-.05.22-.07.41-.14.78-.33,1.15-.57.36-.22.68-.46,1.02-.69.46-.33.94-.68,1.48-.97h0l.02-.02.02-.03ZM210.6,85.62c-.66,1.09-1.33,2.18-1.67,2.86l1.82-1.31c1.12-.57.41-.77,1.38-.86-.52,1-1.26,2-1.69,3.09l-.82,1.59c-.95,1.45-1.81,5.13-2.07,6.78l-.12,4.46c1.55-2.5,2.95-5.43,4.35-6.32v4.04l.22.26c.11-.38.3-.52.51-.71l-.69,2.91.04,9.11c.86-.2,1.33-1.35,1.66-.05.24.94.05,3.96.07,4.05-.06.67-.05.73.36.57.05.92-.38,4.71-.41,5.42-.16,5.86-4.28,11.46-4.41,11.89-.02.55-.3.82-.53,1.45-.94,2.5-1.17,3.1-1.83,4.23,1.64-.68,2.93-2.26,3.27-2.45-.76,2.07-.72,2.88-2.07,4.82-.51.74-.88,1.4-1.35,2.08-.37.55-1.46,1.3-1.81,1.62-.33.31-.45.52-.82.83l-3.45,2.23c.09,0,.19-.02.27-.04-.72.83-1.14,1.13-1.69,2.11-1.15.46-1.34.78-1.97,1.72-.36.3-.71.62-1.07.95,2.6-.26,3.73-1.4,4.88-1.44-.76.53-4.58,4.02-5.26,4.36-.71.36-1.09.77-1.75,1.13-2.06,1.13-2.07,1.34-4.85,1.75-.56.09-3.34.05-3.63-.02-2.13-.57-3.76-.3-5.85-.09-.52.05-1.81.35-3.04.69.25-1,.43-1.71.57-2.23v-.02c.24-.88.33-1.25.35-1.69v-.04h0c0-.1,0-.19,0-.27,0-.05,0-.11,0-.16l3.65-.95c1.29-.4.89-.04.84-.67l-4.18,1.13c-.14.05-.26.1-.37.14v-.07l-.06-.27c1.19-.32,2.9-.78,3.41-1.14-3.66.16-1.49.14-3.48.66l-.04-.22h.16c-.02-.07-.1-.12-.19-.15-.11-.81-.22-2.01-.33-3.93-.06-1.2-.12-2.67-.17-4.45,5.69-1.07,7.9.42,13.11,1.41.73.11,2.75.69,3.43.57.38-.07.07.06.33-.14,0-.57-.58-.29-1.41-.33-1.44-.07-5.19-.94-6.42-1.54l-2.85-.71c.17-.19-.2-.55,1.46-.09,1.38.37,2.88,1.13,4.29,1.39l5.24.5c-.56-.61-2.33-.52-3.41-.74-.45-.09-1.09-.38-1.7-.47l-1.92-.41c.17-.19-.11-.25,1-.05,1.07.17,2.21.48,3.29.38-.33-.38-2.26-.64-2.74-.6,1.67-.64,2.81-.55,5.58-2.17,5.28-3.11,5.41-4.13,9.65-8.64,1.56-1.67,3.22-4.54,3.4-6.73l-1.82,3.74-2.37,3.22c-.58.58-.99,1.5-1.93,1.69l2.96-3.73c.09-.15-.02-.29.27-.6.91-1.1,3.1-5.99,3.32-7.38l.92-4.7c-.51.24-1.13,3.98-1.39,4.64l-1.82,4.15c-.53,1.09-.3,1.34-1.38,2.89l-3.91,5.16-.76.52c-.97.97-1.14,1.38-2.39,2.03l-3.3,2.29c-2.06,1.5-4.98,2.08-6.41,2.75-.15-.17-.21-.06-.22-.37.3-.09.76-.25,1.13-.38,1.31-.5,4.34-1.46,5.33-2.29,1.04-.88,3.3-1.9,4.54-3.2.4-.41.48-.24,1.04-.89.62-.72,1.45-1.14,2-1.98.83-1.3,1.8-2.11,2.54-3.63.67-1.35,1.43-2.7,1.95-4.13l3.06-9.55-.06-.58c-.68,2.18-1.88,6.68-3.01,8.46l-1.44,2.64c-.71,2.14-.64,1.18-1.33,2.59-.58,1.22,0,1.14-2.18,3.4-.1.1-.48,1.44-2.52,2.44l4.08-4.92,2.12-4.27c.68-1.22,1.25-2.65,1.66-4.03.6-1.79,1.91-4.93,2.12-6.87l-.36.5-1.12,3.34-2.13,5.11-2.41,3.69,2.33-4.53c.32-.76.38-1.24.98-2.47.25-.52.33-1.08.58-1.69.41-.97,1.09-2.45,1.14-3.5.67-.11.21-.11.77-.46l.2-.12c.02-.26.02-.38,0-.58-.09-1.12.74-3.26.37-3.86l-1,4.67c-.1-.11-.43.32-.19-.68l-2.34,5.55c-.22.58.02.58-.53.78-.14-.24-.06-.15.1-.37.27-.36-.07,0-.11-.32,0-.2,2.69-6.01,2.68-6.72-1.13,1.09-3.07,5.72-3.5,7.38-.06.36.02.24-.2.45-.76.74-.98,2.02-1.46,2.44.24.55-.19.98-.4,1.1.36-.31.25-.32.43-.77-1.03.41-.3,1.07-.83,1.82-2.06,2.89-4.18,5.26-6.86,7.64-.77.68-3.96,2.7-4.19,3.24.35-.43,1.1-.53,1.64-.87.47-.3,1.13-.62,1.62-.91.91-.52,2.42-1.96,3.15-2.14-.22.74,0,.1-.58.64l-4.59,3.45c.27.26.42-.07.87-.31l2.32-1.49c.42-.35.06-.22.56-.37-.11.63-.66.69-1.49,1.22l-1.87,1.18c-.78.48-1.28.43-1.93.86-1.51.97-5.03,1.93-6.65,2.05-2.26.16-1.6.36-2.45.56-1.35.32-1.28.02-1.8.74-.29-.11,0-.12-.4-.1-.58.06-1.09.19-1.57.35-.02-1.38-.04-2.91-.05-4.62.47-.21,2.12-1,2.85-1.65,1.5-1.33,3.1-3.15,4.41-4.6-1.19-.11-2.62,2.01-3.93,3.19l-2.94,2.63c-.14.1-.26.2-.4.27v-.77c.95-.73,1.9-1.59,2.67-2.34l1.23-1.34c1.65-1.31,3.25-2.81,5.36-3.48l2.19-1.08c.81-.36,3.48-1.14,3.84-1.62l-.02.1c.57-.22,1.97-.83,2.16-.43.11.22,0,.19-.82.62-1.52.73-6,2.24-7.19,3.21l-2.02,1.8c-.6.4-.07-.07-.72.68-1.15,1.35-4.24,4.23-4.7,4.97,1.59-.47,4.29-3.57,5.01-4.8l3.16-2.68c1.81-1.09,5.83-2.53,6.61-3.05,1.31-.88,1.1-.29,1.45-1.19,0-.02.02-.07.04-.1.33.64.78.22,1.17-.31-.83-.31-.84.37-.84.4l-.31-.45c-.26.38-1.86.67-2.39.77-.68.12-.42-.17-.55.36l-4.48,1.6-5.38,2.85c-.56.41-.41.56-.91.87-1.48.93-2.72,2.43-3.86,3.38-.68.55-.51.22-.69.47v-.52c1.26-1.28,1.96-2,3.91-3.6,1.35-1.23,1.82-1.26,3.37-2.6.5-.43.55-.21,1.45-.56,1.93-.74,3.11-1.45,5.23-1.83l.88-.37-1.57.22c.48-.88,2.81-.25,3.97-1.07l-7.86.41c-1.02.09-.74-.05-2.53.17-1.55.2-4.43,1.57-5.15,2.57,0,.02-.05.05-.1.1.35-.88.68-1.83.95-2.9.38-1.48.67-3.14.77-5.03,1.72-.77,3.45-1.45,4.39-1.65l2.53-.38c.69-.2.22-.02.38-.36-4.49.91-4.69.79-7.28,2.01,0-.19,0-.37,0-.57,1.67-.78,4.75-2.22,4.91-2.48.4-.66,3.67-1.74,4.51-2.02,1.55-.53,3.05-.41,4.64-1.31.5-.29.3-.09.52-.62-.33.09-2.29.94-3.36,1.07l-1.62.12c-.51.06-.94.38-1.5.55,2.68-1.34,1.22-.76,2.93-.95,1.3-.16,3.72-.74,4.82-1.59.43-.27.27-.14.38-.1l-2.12,1.82c-.95.73-4.05,1.02-6.39,1.93-1,.4-2.5.68-2.54,1.18,1.71-.19,3.73-1.08,5.42-1.69,2.03-.74,1.13.09,3.94-1.36.42-.22.74-.3,1.19-.58,3.16-2,4.07-2.64,6.1-6.34.17-.31.36-1.1.63-1.38.43,1.3-3.05,5.68-4.29,7.87-.57,1-2.17,2.88-3.04,3.68l-5.75,3.78c-.46.24-1.05.43-1.39.84,1.04-.2,1.83-.09,2.53-.61.56-.42,1.41-.62,2.69-1.48.32-.22.14-.21.6-.32l4.53-3.71,4.41-6.11c1.39-2.41,1.3-4.27,2.1-6.66l-.15-.52c.37-1.59,1.6-5.33,1.67-6.36-.58.97-1.23,3-1.55,4.1-.69,2.78-.66,6.42-2.44,8.96-.55.77-.73,1.15-1.1,1.81-.5.88-.63.06-1.17,1.74-.51-1.05,2.29-2.86,3.34-6.82.26-1,.15-2.05.42-2.96.63-2.1.17-2.47,1.34-5.54l1.57-3.73c.21-.41.68-.74.46-1.17-.69.83-2.49,5.03-2.79,5.93-.07.25,0,.25-.27.41-.07-1.93,1.65-4.87,2.59-6.82-.94.64-1.17,2.65-1.93,3.45-.27.37-.55,1.19-.72,1.65-.53,1.46-.36-.16-.84,2.84-.24,1.45-.84,4.44-1.75,5.52.67-2.41,1.09-3.67,1.48-6.32-.52.43-.84,2.65-1.29,3.53-.24.46-.4.56-.63,1.14-1.07,2.6-1.36,3.3-2.99,5.37-1.1,1.4-3.65,3.42-5.58,3.91l-1.86.37c1.25-.66,2.89-.61,4.22-1.67,2.52-2.02,4.6-4.34,5.65-7.53-.46.36-2.08,3.22-2.68,3.91l-2.9,2.55c-1.18.82-2.57,1.64-3.99,2.12-1.02.35-.81.15-.94.04,1.69-.52.95-.55,2.24-.93-.35-.29-.52-.14-.91.05l.38-.47c-1.65.86-1.81,1.56-3.12,2.26-.93.48-1.45,1.34-1.76,1.14l2.27-2.07c.36-.61.88-.79,1.38-1.25.33-.31.4-.77.6-1,.57-.71,1.86-3.12,2.1-4.05.22-.87.5-1.29.67-2.01.33-1.38.52-2.36,1.14-3.66.48-.92.53-1.79.98-2.6l-.04.95c-.61,1.31.15.52-1.1,2.11l.4.14c-.11.52,0,.55-.11.97l-.78,2.01c-.56,1.04-.58,2.02-1.17,3.14-.25.48-.97,1.45-.55,1.87l2.27-4.98,2.57-7.32.87-1.59-1.07,3.32c-.3,1-1.2,2.62-1.61,4.38l-.82,2.68c-.45.99-1.38,2.39-1.65,3.36.67-.4,1.12-1.61,1.4-2.37.29-.73.27-.2.58-1.15l2.18-6.09c.38-.91.93-1.88,1.03-2.84l.26-.42c.11-.19.41-1.57.79-2.17.19-.21.07.21.26-.33.3-.86-.17.21.02-.33l5.05-8.1-2.01,2.7c-.4.81-1.03,1.1-1.31,1.62l-2.05,3.27c-.2.22-.07.17-.38.27l1.59-2.84c.29-.27.06,0,.14,0,.11-.77,2.26-3.6,3.57-5.29,2.27.12,4.43.14,6.35-.09h0v-.04h0ZM161.66,160.29h-4.09c-.3-.31-.25-.19-.5-.37l-2.21-2.37c-.19-.31-.5-.89-.64-1.26-2.21-5.67-6.48-3.21-9.57-5.26-1.34-.89-2.08-3.22-2.21-5.32-.98-.42-2.95-1.45-3.57-2.11-.86-.91-2.53-2.44-3.1-3.37-.78-1.26-1.22-2.68-1.45-4.15-.17-.36-.33-.67-.46-.83-.04-3.37.71-5.95,2.01-8.01.68-1.48,1.19-2.93.84-4.85-.06-.35-.12-.63-.17-.89-3.42-2.49-4.62-5.44-5.16-8.37-.31-1.86-1.7-9.24-.83-10.22l.05.06c.06-.69,0-1.28.04-2.18,1.46,1.66,1.15,2.22,2.07,3.67,1.26,2.01,6.24,3.67,14.52,15.09.48-.2.98-.38,1.48-.58-.07-1.36-.53-2.69-1.18-3.82-.33-.58-.17-.76-.64-1.38-1.08-1.38-2-2.98-3.72-4.27-.45-.33-.72-.69-1.13-1.12-3.03-2.86-9.82-4.28-9.94-12.26v.15c-.31-1.83-.2-3.79.24-6,.2-1.04.35-1.8.47-2.41.48.07.99.17,1.5.26h0c.56.11,1.13.22,1.7.3.38,2,1.5,4.64,3.43,4.9-.11-1.67-.97-3.21-1.36-4.76.68-.02,1.35-.14,2.01-.36l.07-.02h0c.11-.04-.05.06.1.06.32,0,.83.01,1.39.04.26,0,.55.04.82.06-.09,1.2-.1,2.24,0,2.96l.69,4.6c.06.37.11.27.2.67,0,0-.02-.01-.02,0-.04.21.05-.14-.17,0,.4,1.76,1.44,6.31,2.72,7.23-.47.37-.17.38.29,1.4l2.32,4.44,2.27,6.01c.33-1.34-2.81-7.49-2.67-7.97.51.37,1.13,2,1.43,2.7,1.72,4.05,1.86,4.34,1.96,8.52.06-.52.16.29.22-1.34.04-1,.1-2.14-.14-3.07-.22-.89-.53-1.08-.1-1.87.93,1.02.77,3.91,1.08,4.39.48-1.86-.79-6.09-1.98-8.05l-1.79-3.03c-1.62-2.42-3.25-7.35-3.81-10.13-.52-2.57-1.08-3.79-.98-7.01v-.25c.09,0,.16.02.24.04,0,3.41,1.05,8.39,2.03,10.69.83,1.95,1.41,4.39,2.64,6.26.61.92,1.15,1.77,1.69,2.89.35.74,1.2,1.49,1.64,2.81l-.52-.5.46,1.23c.36-.15.09.16.37-.27.16-.25.15.17.05-.42-.21-1.26-1.33-2.62-.84-2.68.15-.02.19.32.27.56.22.57.56,1.1.81,1.66l-1.75-4.54c-1.57-2.55-1.55-2.42-2.75-5.19-.91-2.08-1.83-6.7-2.06-9.11-.11-1.33-.17-2.44-.17-3.51.06-.04.14-.07.2-.11-.02.63,0,1.57.2,3.22.45,3.81,1.07,6.74,2.65,10.3.99,2.24,1.26,2.27,2.26,4.02.21.38.17.5.48.62l-1.9-3.93c-.72-1.19-2.13-5.67-2.26-7.14-.4-.21.04-1.05.05-1.05l-.22-.2-.29-3.17c-.05-.92.02-2.03.15-3.22.98-.31,1.75-.42,2.39-.43.82,0,1.61.17,2.45.37,1.6.37,3.35.78,6.51.22.06.14.14.29.24.45.17.27.4.57.73.84.27.51.64.95,1.07,1.45h0c.41.48.88,1.04,1.31,1.79-.92-1.02-1.85-1.9-2.78-2.55-.16.26-.29.53-.4.81h0l.97,1.5c.95,1.61.4.6,1.46,1.83.35.4.37.57.72.93l1.3,1.44c.15,1.09.21,2.38.14,3.93-.02.6.05,3.69.14,7.24v.12c.04,1.56.09,3.2.12,4.75l-.36.82c-.14.37,0,.25-.22.69l-3.6,5.81c-.21.27-.36.35-.57.57-.16.16-.56.91-.81.87-.57-.09.51.52-.1-.06l-.15-.25c-.33,1.15-.62.4-1.28,1.31l-2.86,2.96c-.35.27-.89.58-1.12.92-.55-.07.09-.32-.48.12-1.22.95-4.1,2.45-5.16,3.51-1.18,1.18-2.45,1.85-3.32,4.04-.51,1.26-.76,3.16-.98,4.55.17.12-.25.15.35-.35-.11.51-.17.81-.16,1.24-.31.14-.24.63-.56.71.93.41.14,1.86.84,1.71.12-.41.02-3.3.11-4.18.45-4.24,2.13-5.8,5.46-8.37.81-.62-.1.17.66-.24.66-.36-.45.15.32-.3,3.21-1.98,6.21-4.14,9.29-6.31.1.19.1-.07,0,.12-.25.46-2.72,2.1-3.22,2.45-.37.26-.38.47-.78.74l-4.71,3.04c-1.41,1.05-1.39.53-3.72,2.49l-1.31,1.77c.56,0,2.12-1.79,2.62-2.27l5.46-3.46s.1.02.16.09c0-.07,0-.17.06-.27l6.24-4.76c.29-.22.42-.53.64-.84,1.74-2.29,2.39-2.55,3.35-5.41,0,.88.02,1.64.02,2.21-.14.47-.27,1.02-.38,1.65-.06.11-.14.21-.19.29l-.78,1.33c.29-.19.56-.47.82-.79-.25,1.54-.46,3.42-.64,5.53,0,.2-.04.41-.05.62l-2.33,3.4,2.22-1.88-.04.48-.43.38-2.03,1.75c-.36.26-.37.06-.61.56l3.03-1.85-.04.51c-.57.33-1.25.73-2.07,1.49-.68.63-1.85,1.13-2.16,2.08.35-.21,2.26-1.54,4.19-2.94l-.02.4-1.88,1.5c-.71.46-1.23.79-1.39,1.31.62-.21,1.38-.99,1.95-1.41l1.29-.84-.04.73c-.93.66-1.85,1.36-2.05,1.69l2.03-1.3c-.07,1.61-.15,3.29-.21,4.97-.15,4.09-.24,8.26-.29,11.84,0,1.24-.04,2.39-.04,3.46-.27-.38-.53-.79-.89-1.25-.4-.45-.52-.91-.74-1.43l-1.46-2.03c-.37-.25.09.32-.45-.33l-1.6-1.18c.24.61.35.47.82.92,1.14,1.09,3.37,5.27,4.08,5.7.11.06.19.15.25.25v.32c-2.7-1.74-2.69-5.38-6.04-6.62.22.6,1.02,1.19,1.43,1.67,1.4,1.77,2.39,3.69,4.19,4.95.12.09.26.19.41.3v.43c-1.28-.92-1.07-.69-2.05-1.76-.24-.26-.53-.41-.63-.68-.3-.84-2.48-3.21-3.07-3.86-.55-.58-4.56-2.32-5.6-2.8-.22-.1-.27-.19-.5-.07.15.43.12.19,1.05.69,2.19,1.2,2.13.77,4.45,2.52.36.3,2.52,2.49,2.43,2.89.57.33,1.09,1.66,2.24,2.45.63.43.63.61,1.24,1.05.12.1.27.19.43.29v.6c-.11-.07-.24-.17-.38-.29-.62-.48-.98-.99-1.38-1.29-.88-.67-2.19-2.06-2.41-2.95l-2.75-2.55-2.17-1.4c-.73-.38-.53.02-.94-.33-.36-.31-.81-.41-1.22-.56-.46-.17-.67-.45-1.3-.71.51.82,2.91,2.1,3.66,2.43,1.98.88,1.56,1.04,2.88,2.1,0,0,.25.22.3.29l-2.47-1.67c-.97-.58-2.13-.78-3.07-1.4-.37-.43-2.32-1.28-2.32-1.28-.26.04-1.36-1.64-1.79-2.02.3,1.34.56,1.67,1.56,2.32,1.35.81,1.38,1.25,2.02,1.36-.15.04-3.36-1.14-3.77-3.17-.53.52-.09-.17-.22.37-.14.52.79,1.77,1.35,2.23l1.33.69c-.4.58,1.5.06,1.75,0,1.15.42.92-.1.92.71.29-.35.15-.32,1.43.22.71.31.17-.26.58.46-.92-.02-1.03-.31-1.64-.46-2.38-.29-.98-.26-2.72.07-.99.19-1.66.46-2.65-.07-.64-.35-1.22-.92-1.33-1.55,1.03.35,1.93,1.67,3.21,1.26.63-.2.41,0,.07-.26-.3-.15-1.8-.12-3.01-1.23-.71-.64-1.09-1.9-.79-2.81h-.4c.04-.81.05-.55-.15-.83l-.12.63,1.02,3.71c2.18,3.62,3.47.17,8.05,1.75l1.24.48c1.6.82,1.12.22,2.13,1.83,1.07,1.71,2.81,3.88,4.75,4.79.51.24.69.26.76.21v.69c0,.82-.02,1.64-.04,2.44h0v-.06h-.06ZM158.87,87.71c-.07-.05-.05-.02-.02.01.1.05.16.07.02-.01ZM163.88,118.38h0ZM160.75,97.72c-.89-2.12-1.71-4.14-2.05-6.2-.46,2.12.47,4.29,2.05,6.2ZM167.59,75.42c-.55-2.08-1.08-3.92-.71-6.55.25-1.75-.05-3.65.47-5.16.82-2.34-.19-.56,1.54-3.41.22-.37.47-.58.32-.87-.22.43-.52.73-.77,1.18-2.07,3.83-1.45,2.5-1.81,7.51-.02.3-.1.25-.15.71-.14,2.34.07,4.53.57,6.7l.51-.11h.03ZM165.42,75.88s-.02-.12-.02-.17v.17h.02ZM170.33,64.42c.33-.05,0,.22.35-.31l4.7-6.58,4.9-7.14c-.31.06-.11-.12-.45.29l-2.03,3.31c-.62.87-1.3,1.39-1.79,2.02-1.23,1.59-5.73,7.17-5.69,8.42h0ZM174.61,73.75c.19-1.7.55-3.09.37-3.73-.17.27-.43,2.22-.61,3.78l.24-.05h0ZM172.34,74.29c.32-2.83,1.04-5.63,1.04-5.63-.04-.37.19-.14-.17-.22l-.92,3.17-.27,2.74.31-.07h.01ZM203.74,85.67c-.35.45-.74.98-1.29,1.71-.77,1.08-2.14,2.73-2.68,3.81-.81,1.62-.97,1.23-1.24,1.71,1.87-3.53,2.42-4.03,4.76-7.27l.45.02h0v.02ZM202.94,85.62c-.78.83-1.69,1.98-1.79,2.12-.69,1.04-.79.88-1.77,2.02.16-.6,1.69-2.55,3.04-4.19l.52.04h0ZM179.89,117.23h0l5.33-2.79c3.01-1.98,2.62-3.34,4.07-4.44.2-.15,0,.22.26-.27.11-.21.11-.47.24-.76.19-.43.5-.82.62-1.15.32-.92.91-2.73,1.48-2.98-.22,1.03-2.12,4.8-2.74,5.65-2.79,3.81-2.76,4-7.55,6.26l-1.67.79c0-.1,0-.21-.02-.31h-.02ZM179.95,118.96c.62-.27,1.23-.58,1.83-.84.95-.42,2.13-.82,2.94-1.49l.93-.42c-.2.37.16,0-.32.38-.82.67-3.21,1.8-5.38,2.83v-.45h0ZM179.95,118.48c.42-.19.79-.36,1.07-.51,1.17-.62.12-.36,1.65-.84l2.48-1.26c2.17-1.28.97-.57,2.37-1.69.42-.35.72-.27,1.14-.78.25-.37-.32.51-.06-.35.14-.43.88-.77,1.54-1.7,1.4-1.95.86-.86,2-3.47.53-1.22.79-1.5.97-2.9.19-1.43.61-2,.52-2.7-.63,1.15-.77,2.67-1.1,3.93l-1.76,3.73-2.47,2.88c-1.48,1.49-2.26,2.11-4.29,3.06-.37.17-.5.33-.87.55l-3.2,1.65c0,.14,0,.29,0,.42h0v-.02ZM179.83,116.47c.99-.5,1.87-1,2.07-1.41l-2.11,1.03c0,.12.02.26.04.38h0ZM192.15,112.32c.17-.97.47-.52,1.18-1.05l1.79-1.25c.45-.32.92-1.1,1.76-1.46-.29.87-.12.36-.52.76-.3.3.15-.15-.14.29-.4.61,0-.09-.35.26l-3.72,2.47h0v-.02ZM163.81,113.54c-.25.66-.57,1.35-.98,2.36-1.77,4.34-4.3,5.36-5.57,6.83.27.17.99-.5,1.22-.66,1.92-1.4,1.62-1.3,2.86-2.93,2-2.78,1.3-2.53,2.23-4.17.09-.15.17-.35.26-.56l-.02-.89h0v.02ZM141.16,143.31c-.12-.67-.52-1.07-.78-1.59-.48-.92-.35-2-.77-2.91-.64-1.41.26-4.82.82-5.63.81-1.17,1.5-2.59,2.7-3.48.53-.4-.02.02.32-.45l6.7-5.46c.69-.15,2.38-1.3,2.67-1.74l-1.24.68c.19-.38.78-.82,1.17-1.08,1.93-1.3,6-4.45,7.34-5.85.43-.45.06-.29.57-.48-.26,2.13-3.77,6.81-5.18,8.13l-2.67,2.07c-.36.21-.53.26-.91.5l-2.31,1.62c-.35.24-.6.32-.87.52-2.18,1.57-5.03,3.63-5.74,6.2-.35,1.28-.72,3.34-.52,4.84l-.25.2-.06.06c.45.21.15-.16.12.51-.04.79.82,2.18.95,3.3-.36-.06-1.24-2.65-1.26-2.95-.1-1.36-.67-3.83-.14-5.06l1.54-3.05,1.39-1.59c2.57-2.84,3.46-2.53,4.38-3.57.76-.86,2.07-1.56,2.98-2.23l2.55-1.9c.99-.58,1.03-.97,1.65-1.39.48-.33.33-.12.69-.69,1.26-1.77,1.46-1.39,2.57-3.5-.87.69-.95,1-.84,1.28-.61.07-.27,0-.51.37-.41.66-.16.26-.82.84-.42.38-.6.92-1.07,1.34l-5.39,4.27c-.68.33-1.53.94-2.06,1.55-.73.73-3.35,1.74-4.72,3.78l-1.74,2.27c-.78,1.1-1.43,3.97-1.29,5.39.19.84.11-.46.15.52l.31,2.14c.26.95,1.4,2.34,1.13,2.83-.35-.63-.72-1.28-1.24-1.74.09-.22.25.02.04-.25-.97-1.31-.83-2.74-.78-4.31,0-.35.05-.06-.06-.15-.16-.12,0,.42-.1-.04,0-.02-.05,0-.06-.02.02-.84.3-1.12.36-1.81.11-1.4,1.19-3.42,2.13-4.44.68-.74,1.29-1.75,2.06-2.37l.6-.56c.76-.88,4.81-3.56,5.95-4.19,1.38-.77,2.72-1.62,3.66-2.93.63-.88,1.87-1.51,2.31-2.29-.38.12-.33.12-.58.32-3.04,2.43-.99,2.36-6.6,5.22-1.1.57-4.7,3.31-5.63,4.13-1.24,1.08-1.7,2.05-2.41,2.78-.93.94-1.96,3.09-2.1,4.33-.3,2.78-.42,5.11,1.19,7.39-.14.51,0,.12-.27.29h0l-.02.02h0ZM161.71,156.89c-.72-.33-1.72-.72-2.53-1.61-.58-.64-1.75-1.82-2-2.44,1.77,1.28,2.43,2.53,4.53,3.62v.43h0ZM148.06,148.32l-1.57-.53c-1.03-.5-1.69-2.63-1.31-3.27.15.15.1-.27.22.32l.24,1.34c.3,1.13,2.17,1.56,2.44,2.14h-.02ZM190.3,149.1c-.58-.11-1.15-.21-1.7-.3-.73-.11-.88.02-1.33,0-1.23-.05-2.86-.36-4.41-.22-2.19.19-3.94,1.22-5.7,2.47.24-.05.45-.09.66-.14,5.57-1.33,9.57-1.74,12.5-1.81h-.02ZM176.69,144.55c.72-.3,1.81-.5,2.48-.42.4.04.32-.15.87-.12.61,0,2.37.2,2.73,0-1.03-.43-2.32-.06-3.36-.3.56-.41,2.33-.41,3.11-.42l3.68-1.05c1.15-.3,1.04-.1,1.17-.61l-9.87,1.77c-.35.05-.61.1-.84.15,0,.36,0,.71.02,1.04h0v-.02h.01ZM176.66,143.24c.64-.22,1.29-.4,1.67-.45,2.16-.42,2.52-.93,5.17-1.03,1.08-.04.36.12,1.02-.16.38-.16,1.03-.29,1.45-.38.68-.21,6.08-2.28,6.65-2.75l3.69-2.98-4.09,2.85-5.96,2.52c-1.6.52-2.48.3-3.72.57l-4.05.74c-.53.09-.57-.15-1.08.33l-.14-.35c-.41.24-.22.43-.61.43v.66h0,0,0ZM177.05,139.06c.38-.36.82-.19,1.72-.87.6-.46.47-.05,1.52-.92l.82-.62c.77-.37.04-.33,1.03-.79l1.97-.84c.5-.26.6-.48,1.12-.2l-2.47,2.53-1.5.94c-.53.32-1.28,1.07-2.33.81.92-.38,1.41-.56,2.08-1.22.58-.57,1.04-.72,1.26-1.23-1.03.31-.88,1-2.08,1.12.22.43-1.98,1.12-2.11,1.15-.71.21-.5,0-1.03.15h0,0ZM176.59,134.99c1.14-1.26,3.03-3.84,4.55-4.49,1.48-.62,1.7-1.38,2.14-.89-.14-.5-.12-.46.22-.76.64-.43,3.92-2,4.79-1.98.24-.27-.2-.25.3-.4l-.51-.15c-.22.38-.22.07-.07.42l-.38-.32c-.62.72-2.69.17-3.78.63-1.61.68-2.43.46-3.32.97-1.25.72-2.02,1.1-2.58,1.39-.09.2-.16.38-.25.57.91-.61,3.4-2.07,4.34-2.22.31-.05-.27-.26.37.04l-.84.53c.76.21.81-.63,2.19-1.03l2.8-.38-2.21.98c-3.61,1.49-2.16,1.48-4.33,2.67-.5.27-.48.47-1.2,1.08-1.67,1.43-1.51,1.71-2.19,2.48h0v.87h-.03ZM176.59,133.47c.38-.43.64-.93.94-1.28l-.72.61-.22.14v.53h0ZM176.59,132.45l1.29-1.38c.38-.38,1.15-.73,1.69-1.44-.57.19-1.59.92-2.48,1.61-.17.33-.33.67-.5.99v.21h0ZM193.76,119.9c.4.15.73-.24,1.15-.51,2.62-1.65,1.85-1.14,3.73-3.11l1.77-2.63c.42-.43.41-.45.79-.99.4-.55.77-.58,1.77-2.03,1.19-1.72,1.33-4.27,1.69-5.58l.79-2.98-.89,5.32c-.35,1.88-2.42,5.73-3.53,7.23l-.58.77c-.53,1.14-2.63,2.53-3.32,3.94.67-.15.11.16.63-.33l2.74-3.11c1.97-2.64,2.08-2.7,3.4-5.65.19.24.2-.26.12.52-.19,1.9-4.08,6.97-5.18,8.31-.4.47-.63.52-.84.63-.46.26.24-.32-.16.16-.53.67-2.53,1.77-3.17,2.13-2.18,1.14-7.33,2.02-9.78,1.61,1.81-1.3,3.79-.66,5.88-1.92.73-.45,2.52-1,2.99-1.76h0v-.02ZM189.96,123.82c.58-.26,1.66-.31,2.29-.55,3.26-1.19,1.67-.57,3.91-1.7,2.06-1.05,2.53-1.41,3.87-3.25.36-.5.29-.11.69-.71l1.72-2.45c.17-.3.24-.53.46-.93.17.31-.16.58-.32.95-1.2,2.6-2.91,4.91-5.34,6.46-.29.17-.22.15-.42.32-.38.33-1.39.51-1.91.93l-4.95.94h0v-.02h0ZM62.25,91.51c-.14-2.94.48-3.15.17-6.08-.3-2.89-.74-5.05-1.09-7.69,3.22,3.22,1.96,11.13,1.36,13.03-.04.1-.19.45-.21.37-.02-.07-.16.24-.24.36h.01ZM66.74,89.64c-.92-1.39-.1,1.49-.79-1.81l-.31-4.46c-.46-2.1-.24-.67-.69-2.27,2.9,2.59,2.11,3.2,1.8,8.55h-.01ZM86.48,85.31c.84-.86.51-.46,1.33-.88,5.47-2.85,17.9-2.28,24.7-2.38.45,0,1.43-.04,1.82,0,.15.01.29.05.42.06l1.09.41c-2.26.25-4.33.76-6.79.89-5.08.27-4.65-.47-5.53,1.41,3.58,1.95,13.19-.26,17.43,0-3.53,2.28-21.14,2.79-25.97,1.7,2.19-.71,3.3-1.39,4.67-2.72-2.59-.17-5.37-.36-7.84.36-1.82.53-3.99,1.91-5.33,1.13h0v.02ZM135.86,84.17c2.74-.95,14.26-1.41,17.26-.53-1.12.53-15.94.91-17.26.53ZM167.65,99.72c-1.74-2.64-.45-10.77.48-13.58.78,1.6.09,4.4-.14,6.62-.21,2.16.15,5.33-.35,6.96h.01ZM171.48,92.65c.21-3.89,1.95-9.66,4.12-12.3-.3,4.6-2.13,5.99-2.94,9.09-.05.19-.31,1.48-.33,1.55-.5,1.59-.33.95-.84,1.65h0ZM174,97.75c-.94-2.68.36-6.74,2.03-8.64l-2.03,8.64ZM170.66,104.3c-.24-1.15-.42-2.03-.12-3.26.42-1.69.5-1.09,1.34-1.35.62,1.48-.41,3.65-1.22,4.61h0ZM214.26,80.6c-6.52.52-27.86,1.4-32.91-.36,2.49-.66,24.24-.99,29.24-.67l3.25.81c.09-.12.29.15.42.24h0v-.02ZM202.92,75.32c5.34-.78,16.43-.4,22.38.09,1.24.1,2.38.12,3.58.2l2.81.66c.07-.11.25.12.36.2-2.54.63-26.89-.27-29.14-1.15h0ZM221.15,80.28c1.3-.15,4.7-.26,5.67-.47,2.08-.47,2.21-2.14,5.02-.79-.97,1.22,1.04-.09-1.08,1.09-1.25.69-8.52.47-9.61.19h0v-.02ZM240.73,77.82c1.44-.84,4.48-1.15,6.7-1.24-1.33,1.19-4.34,1.8-5.23,1.77-2.83-.06-.42.2-1.46-.53h0ZM243.11,80.24c2.34-.71,9.42-.61,11.84.36-2.63.88-9.75.66-11.84-.36ZM259.88,75.04c2.48-.26,5.07-.35,7.45-.63,2.43-.29,4.41-1.59,5.83-.05-.74,2.53-3.62,1.41-6.32,1.31-3.29-.11-3.78-.05-6.97-.63h.01ZM254.58,78.35c.99-.81,3.2-1.57,4.08-.3l-4.08.3ZM263.92,80.19c1.08-.38,2.57-.87,3.52-1.44,3.37-2.01,2.86-.53,3-.47-.09,2.02-.67,2.84-5.02,2.44-2.79-.25-.6-.02-1.51-.55h.01v.02ZM170.3,150.19c-.84-6.71.98-14.99.1-22.18-.78-6.41-.6-9.21.47-15.32l.94-3.31c.04-.07.19-.14.21-.31s.15-.21.22-.3c-.12,3.69-.43,36.64-1.14,39.59l-.83,1.83h.03ZM166.63,158.92c-2.32-4.65-.51-19.79-.71-25.93.57,2.19,1.1,2.73,1.35,5.98.27,3.52-.04,17.82-.64,19.95h0ZM170.13,173.96l.48-11.49c1.1,1.56.86,3.62.67,5.57-.1,1.04-.2,2.11-.3,3.15l-.86,2.78h.01ZM166.72,211.59c-1.74-4.55-.45-18.59.48-23.42.78,2.76.09,7.59-.14,11.42-.21,3.71.15,9.19-.35,12h.01ZM171.35,232.06c-.61-2.13-.92-16.43-.64-19.95.25-3.25.78-3.78,1.35-5.98-.2,6.14,1.61,21.28-.71,25.93h0ZM163.87,226.13l-.86-2.78c-.1-1.03-.2-2.1-.3-3.15-.19-1.93-.43-4,.67-5.57l.47,11.49h.02ZM166.06,275.43c-.61-2.13-2.76-16.35-2.49-19.86.25-3.25.78-3.78,1.35-5.98-.2,6.14,3.46,21.19,1.14,25.84h0ZM170.52,287.09l-.83-1.83c-.69-2.95-1.02-35.89-1.14-39.59.09.1.2.12.22.3.02.17.17.24.21.31l.94,3.38c1.08,6.11,1.25,8.84.47,15.25-.88,7.19.94,15.49.1,22.18h.03ZM168.46,299.48c2.34-.71,9.42-.61,11.84.36-2.63.88-9.75.66-11.84-.36ZM176.34,216.87c-.36-1.95-1.18-6.45-.27-10.77.02-4.54.05-11.68-1.59-18.56-.97-4.07-1.52-8.82-1.64-13.45-.1-4.54.24-8.99,1.05-12.58.58-2.58.97-4,1.19-4.87.19-.73.27-1.03.27-1.19h0c0-.1-.02-.25-.07-.52-.25-1.38-.92-5.16-.83-22.89,0-.16.02-.33.1-.48l.07-.15c1.67-3.3,3.84-7.58,2.99-15.44-.76-6.96-.81-13.9-.4-19.33.48-6.36,1.74-10.84,3.32-11.29h0c.52-.15,1.08-.56,1.7-1,1.26-.92,2.72-1.97,5.02-2,2.98-.04,6.45.31,9.98.66,6.46.64,13.12,1.3,16.73-.36,2.38-1.1,7.45-.6,13.82.04,8.39.84,19.14,1.91,28.33-.14,4.79-1.07,7.79-.1,9.96.6l.22.07c.63.2,1.18.37,1.62.41.33.04.62,0,.89-.17.12-.07.68-.71,1.38-1.5,1.03-1.17,2.34-2.64,3.41-3.57l.02-.02c1.29-1.1,2.93-.95,4.04-.66.35-5.49,1.02-9.03,1.45-11.1-1.46,1.18-3.86,2.94-7.64,4.9-2.22,1.15-3.34,1-5.16.76-1.08-.15-2.43-.32-4.56-.22-.27.01-.56-.09-.77-.3-.71-.74-2.83.31-4.81,1.3-1.7.86-3.34,1.66-4.61,1.55-6.57-.6-13.06-.83-18.71-1.03-8.79-.31-15.67-.55-18.3-2.06-2.16-1.24-4.98-.16-8.86,1.31-4.39,1.67-10.02,3.81-17.74,3.91h0c-1.13,0-1.22-.55-1.35-1.31-.06-.33-.15-.87-2.21-.97h0c-2.86-.14-7.69,1.03-12.4,2.17-6.47,1.56-12.72,3.07-14.57,1.07l-.26.61c-.2.5-.4.97-.63,1.29h0c-.81,1.14-4.27.73-9.09.15-6.47-.78-15.6-1.87-22.79-.56-9.51,1.74-16.64,1.71-23.88,1.67-5.62-.02-11.29-.05-18.24.78l-.38.05c-3.45.48-17.62,2.48-18.81-4.17-.38-2.16-.62-2.55-.91-2.5-.19.04-.45.12-.72.21-.87.3-1.96.67-3.38.48.19.68.42,1.54.64,2.32.25.86-.38,1.4-.02,1.48.33.07.62.31.73.66.42,1.34.73,2.47.89,3.65.16,1.2.17,2.43,0,3.92,0,.05,0,.1-.02.15-.02.07-.15,1.97-.27,3.97-.07,1.3-.15,2.63-.2,3.53,1.17,0,1.18-.02,1.19-.07.12-.56.32-1.41,1.54-2.65.27-.27.51-.33.79-.4.09-.02.2-.05.29-.33.09-.27.29-.51.57-.63l4.71-1.9c3.1-1.22,13.03-1.15,15.88-1.14.31,0,.1.21.3.11,3.38-1.77,3.4-1.77,5.91-1.19.68.16,1.57.37,2.86.6.35.06.53.12.66.2,1.5.02,3.35.46,5.03.84,1.71.4,3.21.74,3.22.73h0c.1-.12.77-.48,1.9-.64.55-.07,1.26-.15,2.19-.19h0s.1-.02.14-.04c.24-.11.43-.2.82-.16.68-.02,2.08.09,3.83.22,4.24.33,10.72.84,10.74.82.04-.1,0-.31-.04-.52-.04-.24-.09-.46-.07-.74.04-1.31.94-2.24,6.36-2.1,1.77-.88,3.73-.5,5.75-.11,1.64.31,3.31.63,4.69.16l.06-.02c.26-.1,1.17-.06,2.28-.02,1.55.05,3.3.53,3.46.33.1-.14.25-.25.42-.31,3.52-1.36,5.22-.97,7.14-.51,1.41.33,2.98.69,5.75.19,1.64-.3,1.81.17,2.16,1.08.07.2.19.48.56.78.15.1.27.24.35.42.15.35.48.74.88,1.2,1.46,1.72,3.6,4.22,3.25,11.15-.02.56.05,3.66.14,7.18.1,3.99.21,8.52.21,10.61,0,.11,0,.24-.04.35-.95,3.03-1.48,11.07-1.76,19.23-.3,8.24-.35,16.54-.36,20.01,0,3.03-.16,5.9-.29,8.7-.12,2.64-.25,5.22-.26,7.66,0,.74.14,3.94.3,7.85.27,6.34.62,14.47.3,17.77.12.16.19.36.19.58v.55c-.02,4.38-.04,7.48-2.86,11.02-.04,2.86-.3,4.7-.51,6.19-.37,2.65-.58,4.15,1.17,8.91h0c.04.11.06.22.06.33,0,1.45.17,3.19.36,5.02.48,4.77,1.03,10.12-1.34,13.58-.04.06.05.06.06.21,0,.1,0,.2,0,.33.94,3.41-.53,11.78-.55,16.06l-.04,6.93c.25,1.64.89,3.68,1.59,5.89,1.05,3.35,2.23,7.08,2.44,10.71.1,1.69.1,3.35.05,4.95-.05,1.61-.15,3.07-.25,4.4v.02c-.04.53-.51.94-1.05.91-.25-.01-.64-.06-1.09-.11-1.46-.15-3.57-.77-3.6-.57-.04.29-.17.73-.32,1.28-.47,1.62-1.28,4.44-.46,5.26.73.72,3.4.16,4.9-.15.55-.11.98-.2,1.31-.2.11,0,.24.01.35.05,3.16,1.08,10.69,1.8,15.71,1.59,1.35-.06,2.49-.19,3.31-.38.33-.09.56-.02.66-.02-.52-1.17-1.67-4.84-2.43-7.3l-.29-.93c-.15-.46-.09.48-.38.5-1.46.09-3.4.21-4.1-1.57-1.03-2.58-.73-7.14-.46-11.39.12-1.85.24-3.65.24-5.11,0-2.31-.1-5.88-.41-8.94-.22-2.08-.53-3.91-.98-4.84-.26-.53-.38-1.67-.4-2.84-.02-1.17.05-2.45.19-3.16-.04-.21-.04-.43,0-.66.04-.32.15-.67.27-.92,0-.04.04-.07.06-.11.4-.63.22-3.65.1-5.8-.05-.95-.1-1.75-.09-2.22.06-1.49.35-2.03.56-2.45.1-.2.16-.32-.02-1.15v-.04c-.45-1.85-.16-4.17.11-6.48.15-1.26.31-2.53.33-3.62,0-.48.24-1,.48-1.61.37-.87.84-2,.37-2.43-.58-.53-.95-3.56-1.04-6.5-.07-2.48.05-5.03.41-6.11.04-.15.1-.29.2-.41v-.02c.29-.31-.29.14-.33-.14h0l-.05-.04.02-.08ZM288.08,292.4c-30.54,30.54-72.73,49.43-119.32,49.43s-88.78-18.88-119.32-49.43C18.88,261.87,0,219.67,0,173.08S18.88,84.28,49.43,53.75C79.97,23.21,122.15,4.33,168.75,4.33s88.78,18.88,119.32,49.43c30.54,30.54,49.43,72.73,49.43,119.32s-18.88,88.78-49.43,119.32h0ZM281.94,286.27c-28.96,28.96-68.98,46.88-113.19,46.88s-84.22-17.92-113.19-46.88c-28.96-28.96-46.88-68.98-46.88-113.19S26.61,88.86,55.57,59.9C84.53,30.93,124.55,13.02,168.75,13.02s84.22,17.92,113.19,46.88c28.96,28.96,46.88,68.98,46.88,113.19s-17.92,84.22-46.88,113.19h0ZM17.53,100.18h0ZM147.49,0h0ZM246.28,23.3h0ZM273.42,39.96h0ZM310.34,59.15h0ZM296.25,62.22h0ZM296.24,62.67h0ZM332.18,129.32h0ZM331.94,129.71h0ZM332.75,213.33h0ZM332.49,224.1h0Z"/>
  <g>
    <path class="st1" d="M423.04,70.75c15.5,0,20.71-.54,21.91-.54.94-.13,1.74.8,1.74,1.6-.27,3.88.4,10.29.53,14.83.13,1.74-.67,3.74-2,3.74-1.07,0-2.14-1.33-3.07-4.41-1.6-5.21-4.28-9.09-8.95-9.75-4.14-.4-15.77-.4-18.57-.27-.8,0-2,1.2-2,1.47-.67,4.01-.8,19.64-.8,28.46,0,2.27.53,4.81,1.6,4.81,4.01,0,12.56.13,15.5-.27,4.14-.67,5.61-1.6,7.08-6.15.67-1.87,1.47-3.47,2.81-3.47,1.07,0,1.6,2,1.6,3.21,0,1.74-.53,6.15-.53,8.55,0,4.68.27,8.02.27,10.16,0,3.21-1.2,4.41-2.27,4.41-.53,0-1.6-.93-2.4-3.47-1.34-4.81-3.47-6.01-5.48-6.55-1.74-.27-5.75-.67-8.69-.67-2.27,0-6.28,0-8.28.4-.53,0-1.07,1.07-1.2,1.47,0,8.82.53,22.05.53,24.32.27,5.48,1.34,7.08,8.15,8.42,2.14.4,3.87,1.34,3.87,2.67,0,1.07-2,2-4.41,2-3.47,0-8.42-.4-13.5-.4-6.81,0-14.7.8-19.11.8-2.67,0-3.87-.8-3.87-1.6,0-1.34,1.47-2.27,3.87-2.81,5.88-1.6,7.08-3.87,7.35-7.08.4-4.14,1.07-12.16,1.07-38.35,0-12.56,0-20.18-.27-23.65-.27-4.41-1.87-6.41-7.08-7.75-2.81-.67-4.28-1.34-4.28-2.67,0-1.2,2.14-1.87,4.01-1.87,5.88,0,11.89.4,17.24.4h17.64Z"/>
    <path class="st1" d="M457.24,94.8c4.41,0,8.42.27,10.29.27,3.21,0,9.22-.8,20.18-.8,8.69,0,15.77,2.27,18.57,5.08,3.34,3.07,5.08,6.68,5.08,10.56,0,8.95-6.55,12.96-10.69,14.56-.67.13-.8.94-.67,1.07,2.54,5.21,8.28,13.9,13.36,19.78,3.21,3.61,6.68,5.75,10.16,6.68,1.6.4,2.54.8,2.54,2.14,0,1.47-3.07,3.21-9.62,3.21s-13.1-1.87-18.71-8.02c-2.41-2.67-8.15-12.83-12.03-18.71-1.2-1.87-3.47-3.21-5.48-3.21-.53,0-1.2.27-1.87.67-.27.13-.67.8-.67,1.47-.13,2.27,0,9.89.4,15.63.27,4.01,2.27,5.08,6.15,6.15,1.07.27,2.67,1.34,2.67,2.14,0,1.74-1.87,2.27-3.74,2.27-2.14,0-7.22-.4-12.43-.4-5.61,0-9.49.8-13.63.8-2.14,0-3.74-.8-3.74-2.01,0-1.07,1.34-2,3.34-2.54,5.08-1.47,5.88-2.94,6.15-7.75.13-2.67.4-11.62.4-21.38s0-13.76-.13-16.97c-.27-2.67-.4-4.68-6.01-6.01-1.87-.54-3.61-1.6-3.61-2.67,0-1.47,1.87-2,3.74-2ZM479.02,100.01c-.53.27-1.2,1.07-1.2,1.87,0,1.34-.27,18.04-.13,20.04.13.8.8,1.47,1.47,1.47,4.94,0,10.69-1.07,12.16-2.14,1.74-1.34,4.94-4.14,4.94-9.35,0-6.55-5.21-12.56-13.63-12.56-1.6,0-2.67.27-3.61.67Z"/>
    <path class="st1" d="M571.21,94.4c.53,4.14,1.2,5.75,1.87,7.48,1.87,4.81,13.09,32.74,16.7,40.09,3.21,6.68,3.88,7.88,8.69,9.22,2.67.94,3.74,1.74,3.74,2.54,0,1.07-1.34,2.27-2.41,2.27-6.01-.13-14.83-.67-19.78-.67-3.47,0-4.94.4-9.62.4-2.27,0-3.61-1.07-3.61-2.14,0-.8.8-1.74,3.21-2.27,4.28-.93,4.94-2.67,4.94-4.28,0-1.07-1.6-5.35-2.4-7.22-.13-.53-1.2-1.6-2.81-1.74s-11.49-.4-16.17-.13c-1.6.13-3.21.4-3.74,1.2-.67,1.34-2.14,5.21-2.14,7.08,0,2.67,1.07,4.01,5.35,5.21,1.87.54,3.07,1.2,3.07,2.27,0,1.34-1.47,1.87-3.74,1.87-3.88,0-5.75-.27-8.55-.27-4.81,0-8.55.53-11.89.67-2.4.13-3.21-.67-3.21-1.47,0-1.34,1.47-2.27,3.88-2.94,4.68-1.47,6.55-4.14,9.09-9.09,3.07-5.75,12.03-27.13,14.7-33.67,1.74-4.14,2.14-5.48,2.94-7.88.13-.67.67-1.34,1.87-2.27,1.34-1.2,3.47-2.27,5.21-4.28.53-.67,2.41-1.6,2.94-1.6.67,0,1.74.53,1.87,1.6ZM569.21,130.48c-2.27-6.01-6.95-17.64-7.62-19.24-.13-.27-1.07-.13-1.34.4-2.41,6.15-5.61,14.03-7.48,19.38,0,.27.4.94.94.94,3.61.27,11.76.27,14.7-.13.53-.13.8-.8.8-1.34Z"/>
    <path class="st1" d="M607.69,94.26c1.87,0,14.56.8,18.84.8,1.07,0,2.14,1.2,2.67,2,1.47,2.14,5.08,5.48,8.55,9.49,3.74,4.14,19.51,20.84,25.25,26.32.53.4.94.27.94-.53.4-6.68.53-20.71-.4-26.06-.53-3.88-2.4-6.28-7.88-7.48-2.27-.67-3.47-1.2-3.47-2.4,0-1.47,2.54-1.74,3.74-1.74,4.41,0,8.28.4,11.49.4,2.67,0,5.88-.54,9.22-.54,1.87,0,3.34.4,3.34,1.74s-1.2,1.6-3.74,2.67c-4.28,1.6-5.21,3.07-5.75,7.75-.67,5.88-1.34,26.46-1.34,31s.67,13.5.67,14.43c0,4.14-.67,5.61-2.27,5.61-1.47,0-5.08-1.6-6.82-3.34-2.67-3.21-7.08-8.69-14.83-17.1-6.15-6.41-14.83-16.43-22.05-23.78-.27-.27-1.07-.27-1.07.53-.13,4.81-.53,21.51-.13,29.8.27,3.34,2.14,6.01,7.22,7.62,1.47.54,2.81,1.2,2.81,2.14,0,1.47-1.47,2-3.74,2-.4,0-4.01-.27-7.75-.27-3.21,0-8.82.67-12.56.67-2.14,0-3.61-.67-3.61-2,0-.8.8-1.47,3.34-2.14,6.01-1.6,7.08-4.54,7.48-8.69.4-3.74,1.47-19.64,1.47-26.86,0-4.14-.13-8.95-.27-9.75-.13-.94-2.54-5.08-4.68-6.28-1.2-.67-3.21-1.34-5.21-1.87-2.27-.53-3.21-1.2-3.21-2.54,0-.8,1.34-1.6,3.74-1.6Z"/>
    <path class="st1" d="M695.89,101.35c5.75-4.81,15.23-8.55,28.19-8.55,7.22,0,16.7,2.41,19.24,2.94.8.13,2,2.54,2,3.21,0,3.48.94,9.49.94,11.09s-1.6,3.34-2.81,3.34c-.53,0-1.2-.67-1.6-1.74-1.2-3.07-2.54-5.61-4.28-7.75-3.21-3.74-9.22-6.68-15.1-6.68s-10.82,3.48-13.23,5.61c-2.81,2.67-6.95,10.29-6.95,20.18s3.07,17.51,7.35,21.78c4.68,4.54,10.16,7.62,15.37,7.62,5.48,0,10.42-1.74,13.76-7.08,1.07-1.6,2.27-3.21,3.47-5.21.94-1.6,2.67-3.07,3.87-3.07.53,0,1.47,1.6,1.2,2.41-1.07,3.61-2.81,10.16-3.61,12.83-.4,1.07-2.27,1.74-3.34,2.27-4.94,1.74-11.09,3.07-18.97,3.07-10.96,0-21.65-3.48-28.19-10.02-6.01-5.75-8.95-13.36-8.95-22.85,0-10.16,4.94-17.91,11.63-23.38Z"/>
    <path class="st1" d="M761.89,94.67c1.2,0,9.89.4,13.76.4,4.14,0,11.62-.54,14.97-.67,1.2-.13,2.54.54,2.54,1.47,0,1.34-2,2.54-3.47,2.81-5.88,1.34-5.75,2.41-6.28,7.08-.4,3.61-.4,13.09-.4,21.78,0,4.81,0,10.69.13,13.5.27,7.75.4,8.95,6.41,10.16,2,.53,3.21,1.74,3.21,2.94s-1.47,1.6-3.47,1.6c-4.81,0-7.35-.4-12.43-.4-3.88,0-13.5.8-16.03.8-1.87,0-3.61-.54-3.61-1.6,0-1.34,1.6-2.54,3.34-3.07,5.88-1.6,6.81-3.21,7.22-8.82.27-2.41.27-7.88.27-12.43,0-13.76.13-21.25-.27-24.32-.4-3.34-1.47-5.61-5.48-6.68-2.54-.67-3.74-2.01-3.74-3.34,0-.93,1.34-1.2,3.34-1.2Z"/>
    <path class="st1" d="M845.4,94.8c.4,0,1.07,1.47,1.07,2.27,0,3.88.13,9.22-.13,10.96-.4,2.67-1.74,3.47-2.14,3.47-1.34,0-2-1.74-2.27-3.21-1.07-4.01-2.4-6.01-4.28-7.88-2-1.87-5.88-3.47-8.95-3.47-5.75,0-9.75,3.74-9.75,8.55,0,3.47,2.4,6.68,6.41,8.95,4.41,2.67,8.95,4.94,13.23,7.48,5.75,3.47,10.82,8.69,10.82,16.3s-4.94,12.83-9.35,15.5c-3.21,1.87-9.75,3.88-16.3,3.88-7.35,0-14.16-1.87-17.64-4.01-1.07-.67-1.47-2.01-1.6-2.67-.27-1.6-.94-8.95-.94-10.96,0-2.14.67-4.28,2-4.28,1.47,0,2,1.87,2.94,4.01.94,2.27,2,4.14,3.34,6.01,3.34,4.68,8.95,7.62,13.63,7.62s9.75-3.34,9.75-8.69c0-4.54-3.34-7.22-6.41-9.09-4.28-2.67-9.22-5.35-11.89-7.08-4.94-3.21-11.22-8.55-11.22-17.1,0-10.16,8.02-18.57,24.05-18.57,7.62,0,12.29,1.6,15.63,2.01Z"/>
    <path class="st1" d="M871,101.35c5.75-4.81,15.23-8.55,28.19-8.55,7.22,0,16.7,2.41,19.24,2.94.8.13,2,2.54,2,3.21,0,3.48.94,9.49.94,11.09s-1.6,3.34-2.81,3.34c-.53,0-1.2-.67-1.6-1.74-1.2-3.07-2.54-5.61-4.28-7.75-3.21-3.74-9.22-6.68-15.1-6.68s-10.82,3.48-13.23,5.61c-2.81,2.67-6.95,10.29-6.95,20.18s3.07,17.51,7.35,21.78c4.68,4.54,10.16,7.62,15.37,7.62,5.48,0,10.42-1.74,13.76-7.08,1.07-1.6,2.27-3.21,3.47-5.21.94-1.6,2.67-3.07,3.87-3.07.53,0,1.47,1.6,1.2,2.41-1.07,3.61-2.81,10.16-3.61,12.83-.4,1.07-2.27,1.74-3.34,2.27-4.94,1.74-11.09,3.07-18.97,3.07-10.96,0-21.65-3.48-28.19-10.02-6.01-5.75-8.95-13.36-8.95-22.85,0-10.16,4.94-17.91,11.63-23.38Z"/>
    <path class="st1" d="M964.61,94.4c.53,4.14,1.2,5.75,1.87,7.48,1.87,4.81,13.09,32.74,16.7,40.09,3.21,6.68,3.88,7.88,8.69,9.22,2.67.94,3.74,1.74,3.74,2.54,0,1.07-1.34,2.27-2.41,2.27-6.01-.13-14.83-.67-19.78-.67-3.47,0-4.94.4-9.62.4-2.27,0-3.61-1.07-3.61-2.14,0-.8.8-1.74,3.21-2.27,4.28-.93,4.94-2.67,4.94-4.28,0-1.07-1.6-5.35-2.4-7.22-.13-.53-1.2-1.6-2.81-1.74s-11.49-.4-16.17-.13c-1.6.13-3.21.4-3.74,1.2-.67,1.34-2.14,5.21-2.14,7.08,0,2.67,1.07,4.01,5.35,5.21,1.87.54,3.07,1.2,3.07,2.27,0,1.34-1.47,1.87-3.74,1.87-3.88,0-5.75-.27-8.55-.27-4.81,0-8.55.53-11.89.67-2.4.13-3.21-.67-3.21-1.47,0-1.34,1.47-2.27,3.88-2.94,4.68-1.47,6.55-4.14,9.09-9.09,3.07-5.75,12.03-27.13,14.7-33.67,1.74-4.14,2.14-5.48,2.94-7.88.13-.67.67-1.34,1.87-2.27,1.34-1.2,3.47-2.27,5.21-4.28.53-.67,2.41-1.6,2.94-1.6.67,0,1.74.53,1.87,1.6ZM962.61,130.48c-2.27-6.01-6.95-17.64-7.62-19.24-.13-.27-1.07-.13-1.34.4-2.41,6.15-5.61,14.03-7.48,19.38,0,.27.4.94.94.94,3.61.27,11.76.27,14.7-.13.53-.13.8-.8.8-1.34Z"/>
    <path class="st1" d="M1001.09,94.26c1.87,0,14.56.8,18.84.8,1.07,0,2.14,1.2,2.67,2,1.47,2.14,5.08,5.48,8.55,9.49,3.74,4.14,19.51,20.84,25.25,26.32.53.4.94.27.94-.53.4-6.68.53-20.71-.4-26.06-.53-3.88-2.4-6.28-7.88-7.48-2.27-.67-3.48-1.2-3.48-2.4,0-1.47,2.54-1.74,3.74-1.74,4.41,0,8.28.4,11.49.4,2.67,0,5.88-.54,9.22-.54,1.87,0,3.34.4,3.34,1.74s-1.2,1.6-3.74,2.67c-4.28,1.6-5.21,3.07-5.75,7.75-.67,5.88-1.34,26.46-1.34,31s.67,13.5.67,14.43c0,4.14-.67,5.61-2.27,5.61-1.47,0-5.08-1.6-6.82-3.34-2.67-3.21-7.08-8.69-14.83-17.1-6.15-6.41-14.83-16.43-22.05-23.78-.27-.27-1.07-.27-1.07.53-.13,4.81-.53,21.51-.13,29.8.27,3.34,2.14,6.01,7.22,7.62,1.47.54,2.81,1.2,2.81,2.14,0,1.47-1.47,2-3.74,2-.4,0-4.01-.27-7.75-.27-3.21,0-8.82.67-12.56.67-2.14,0-3.61-.67-3.61-2,0-.8.8-1.47,3.34-2.14,6.01-1.6,7.08-4.54,7.48-8.69.4-3.74,1.47-19.64,1.47-26.86,0-4.14-.13-8.95-.27-9.75-.13-.94-2.54-5.08-4.68-6.28-1.2-.67-3.21-1.34-5.21-1.87-2.27-.53-3.21-1.2-3.21-2.54,0-.8,1.34-1.6,3.74-1.6Z"/>
    <path class="st1" d="M1166.46,70.75c15.5,0,20.71-.54,21.91-.54.94-.13,1.74.8,1.74,1.6-.27,3.88.4,10.29.54,14.83.13,1.74-.67,3.74-2.01,3.74-1.07,0-2.14-1.33-3.07-4.41-1.6-5.21-4.28-9.09-8.95-9.75-4.14-.4-15.77-.4-18.57-.27-.8,0-2.01,1.2-2.01,1.47-.67,4.01-.8,19.64-.8,28.46,0,2.27.53,4.81,1.6,4.81,4.01,0,12.56.13,15.5-.27,4.14-.67,5.61-1.6,7.08-6.15.67-1.87,1.47-3.47,2.81-3.47,1.07,0,1.6,2,1.6,3.21,0,1.74-.53,6.15-.53,8.55,0,4.68.27,8.02.27,10.16,0,3.21-1.2,4.41-2.27,4.41-.53,0-1.6-.93-2.41-3.47-1.33-4.81-3.47-6.01-5.48-6.55-1.74-.27-5.75-.67-8.69-.67-2.27,0-6.28,0-8.28.4-.54,0-1.07,1.07-1.2,1.47,0,8.82.53,22.05.53,24.32.27,5.48,1.34,7.08,8.15,8.42,2.14.4,3.88,1.34,3.88,2.67,0,1.07-2.01,2-4.41,2-3.48,0-8.42-.4-13.5-.4-6.82,0-14.7.8-19.11.8-2.67,0-3.88-.8-3.88-1.6,0-1.34,1.47-2.27,3.88-2.81,5.88-1.6,7.08-3.87,7.35-7.08.4-4.14,1.07-12.16,1.07-38.35,0-12.56,0-20.18-.27-23.65-.27-4.41-1.87-6.41-7.08-7.75-2.8-.67-4.28-1.34-4.28-2.67,0-1.2,2.14-1.87,4.01-1.87,5.88,0,11.89.4,17.24.4h17.64Z"/>
    <path class="st1" d="M1200.66,94.8c4.41,0,8.42.27,10.29.27,3.21,0,9.22-.8,20.18-.8,8.69,0,15.77,2.27,18.57,5.08,3.34,3.07,5.08,6.68,5.08,10.56,0,8.95-6.55,12.96-10.69,14.56-.67.13-.8.94-.67,1.07,2.54,5.21,8.28,13.9,13.36,19.78,3.21,3.61,6.68,5.75,10.16,6.68,1.6.4,2.54.8,2.54,2.14,0,1.47-3.07,3.21-9.62,3.21s-13.09-1.87-18.71-8.02c-2.41-2.67-8.15-12.83-12.03-18.71-1.2-1.87-3.47-3.21-5.48-3.21-.54,0-1.2.27-1.87.67-.27.13-.67.8-.67,1.47-.13,2.27,0,9.89.4,15.63.27,4.01,2.27,5.08,6.15,6.15,1.07.27,2.67,1.34,2.67,2.14,0,1.74-1.87,2.27-3.74,2.27-2.14,0-7.22-.4-12.43-.4-5.61,0-9.49.8-13.63.8-2.14,0-3.74-.8-3.74-2.01,0-1.07,1.34-2,3.34-2.54,5.08-1.47,5.88-2.94,6.15-7.75.13-2.67.4-11.62.4-21.38s0-13.76-.13-16.97c-.27-2.67-.4-4.68-6.01-6.01-1.87-.54-3.61-1.6-3.61-2.67,0-1.47,1.87-2,3.74-2ZM1222.44,100.01c-.54.27-1.2,1.07-1.2,1.87,0,1.34-.27,18.04-.13,20.04.13.8.8,1.47,1.47,1.47,4.94,0,10.69-1.07,12.16-2.14,1.74-1.34,4.94-4.14,4.94-9.35,0-6.55-5.21-12.56-13.63-12.56-1.6,0-2.67.27-3.61.67Z"/>
    <path class="st1" d="M1314.63,94.4c.53,4.14,1.2,5.75,1.87,7.48,1.87,4.81,13.09,32.74,16.7,40.09,3.21,6.68,3.87,7.88,8.69,9.22,2.67.94,3.74,1.74,3.74,2.54,0,1.07-1.34,2.27-2.4,2.27-6.01-.13-14.83-.67-19.78-.67-3.48,0-4.94.4-9.62.4-2.27,0-3.61-1.07-3.61-2.14,0-.8.8-1.74,3.21-2.27,4.28-.93,4.94-2.67,4.94-4.28,0-1.07-1.6-5.35-2.41-7.22-.13-.53-1.2-1.6-2.8-1.74-1.6-.13-11.49-.4-16.17-.13-1.6.13-3.21.4-3.74,1.2-.67,1.34-2.14,5.21-2.14,7.08,0,2.67,1.07,4.01,5.35,5.21,1.87.54,3.07,1.2,3.07,2.27,0,1.34-1.47,1.87-3.74,1.87-3.87,0-5.75-.27-8.55-.27-4.81,0-8.55.53-11.89.67-2.41.13-3.21-.67-3.21-1.47,0-1.34,1.47-2.27,3.87-2.94,4.68-1.47,6.55-4.14,9.09-9.09,3.07-5.75,12.03-27.13,14.7-33.67,1.74-4.14,2.14-5.48,2.94-7.88.13-.67.67-1.34,1.87-2.27,1.33-1.2,3.47-2.27,5.21-4.28.54-.67,2.41-1.6,2.94-1.6.67,0,1.74.53,1.87,1.6ZM1312.62,130.48c-2.27-6.01-6.95-17.64-7.62-19.24-.13-.27-1.07-.13-1.34.4-2.41,6.15-5.61,14.03-7.48,19.38,0,.27.4.94.93.94,3.61.27,11.76.27,14.7-.13.53-.13.8-.8.8-1.34Z"/>
    <path class="st1" d="M1387.05,95.07c13.63,0,15.1-.8,18.57-2.54.54-.27,2.01.4,2.01,2.14-.27,4.68.4,12.29.4,13.9,0,1.87-1.74,3.07-2.67,3.07s-1.6-.67-2.41-3.07c-2.14-5.61-4.01-6.95-6.81-7.48-2.54-.53-10.02-.53-12.43,0-.54.13-.94.8-1.07,1.6-.13,2-.13,17.1-.13,30.6,0,7.22,0,10.16.53,12.56.54,2.94,1.47,4.01,6.55,5.35,2.67.53,3.74,1.34,3.74,2.54,0,1.6-2.41,2.14-4.14,2.14-5.61,0-8.02-.53-14.43-.53-3.47,0-12.29.8-15.37.8-2.41,0-3.88-.8-3.88-2.14,0-1.2,1.74-2.14,3.47-2.54,6.82-1.74,7.35-3.87,7.62-9.35.53-10.56,1.07-23.38,1.07-38.75,0-.8-.4-2.01-1.07-2.14-2.27-.53-9.75-.8-12.43-.27-2.27.67-4.01,2-6.41,6.68-1.6,2.8-2.27,3.61-2.94,3.61-1.47,0-2.27-1.74-2.27-3.07,0-1.2,1.47-11.09,1.87-14.3,0-1.6,1.6-1.87,2.01-1.87,1.07,0,2.27,1.2,2.94,1.6,2,1.07,4.54,1.47,16.03,1.47h21.65Z"/>
    <path class="st1" d="M1446.04,122.19c5.35,0,6.15-1.2,8.28-5.75.67-1.47,1.6-2.81,2.81-2.81,1.07,0,1.34,1.47,1.34,3.87,0,.94-.27,3.61-.27,6.55,0,3.88.27,5.35.27,8.28,0,2.67-1.07,3.47-2.14,3.47s-2-1.2-2.67-3.07c-1.07-2.94-1.47-4.41-2.67-4.81-1.6-.54-5.88-.54-10.69-.4-.53,0-1.07,1.07-1.2,1.87-.4,2.67-.4,14.03.13,16.84.13,1.07,1.47,2.94,2.01,3.21,1.87.94,6.55,1.2,8.55,1.2,2.94,0,5.61-.13,7.35-.67,4.28-1.2,7.75-4.68,10.69-9.09.94-1.47,1.47-2.54,2.54-2.54,1.47,0,1.74,2.27,1.74,3.48,0,3.61-2.81,11.09-3.61,12.43-.54.94-2.14,1.74-3.48,1.74-6.95,0-15.37-.67-33.4-.67-4.28,0-11.62.67-14.7.67s-4.94-.8-4.94-2.14c0-1.2,2.27-2.27,3.88-2.67,6.28-1.47,7.08-2.67,7.62-8.02.4-4.28.54-11.36.54-19.91,0-6.01,0-13.76-.27-18.57-.13-2.81-.93-4.28-5.75-5.61-1.6-.54-3.61-1.34-3.61-2.81,0-.8,1.07-1.74,3.74-1.74,2.41,0,8.28.54,14.43.54,21.51,0,27.66.13,30.87-.54.54-.13,2.14.4,2.14,1.34,0,3.61.8,7.88,1.2,10.82.27,2.67-1.07,4.28-2.01,4.28s-2.14-1.34-3.07-4.01c-1.74-4.68-4.94-6.68-10.02-6.95-1.87,0-6.41-.27-11.22,0-.4,0-1.07,1.07-1.2,1.74-.27,2.01-.4,15.1-.13,18.57,0,.4.54,1.47,1.2,1.6,1.34.13,4.01.27,5.75.27Z"/>
    <path class="st1" d="M1482.46,94.8c4.41,0,8.42.27,10.29.27,3.21,0,9.22-.8,20.18-.8,8.69,0,15.77,2.27,18.57,5.08,3.34,3.07,5.08,6.68,5.08,10.56,0,8.95-6.55,12.96-10.69,14.56-.67.13-.8.94-.67,1.07,2.54,5.21,8.28,13.9,13.36,19.78,3.21,3.61,6.68,5.75,10.16,6.68,1.6.4,2.54.8,2.54,2.14,0,1.47-3.07,3.21-9.62,3.21s-13.09-1.87-18.71-8.02c-2.41-2.67-8.15-12.83-12.03-18.71-1.2-1.87-3.47-3.21-5.48-3.21-.53,0-1.2.27-1.87.67-.27.13-.67.8-.67,1.47-.13,2.27,0,9.89.4,15.63.27,4.01,2.27,5.08,6.15,6.15,1.07.27,2.67,1.34,2.67,2.14,0,1.74-1.87,2.27-3.74,2.27-2.14,0-7.22-.4-12.43-.4-5.61,0-9.49.8-13.63.8-2.14,0-3.74-.8-3.74-2.01,0-1.07,1.34-2,3.34-2.54,5.08-1.47,5.88-2.94,6.15-7.75.13-2.67.4-11.62.4-21.38s0-13.76-.13-16.97c-.27-2.67-.4-4.68-6.01-6.01-1.87-.54-3.61-1.6-3.61-2.67,0-1.47,1.87-2,3.74-2ZM1504.24,100.01c-.54.27-1.2,1.07-1.2,1.87,0,1.34-.27,18.04-.13,20.04.13.8.8,1.47,1.47,1.47,4.94,0,10.69-1.07,12.16-2.14,1.74-1.34,4.94-4.14,4.94-9.35,0-6.55-5.21-12.56-13.63-12.56-1.6,0-2.67.27-3.61.67Z"/>
    <path class="st1" d="M1559.28,94.26c1.87,0,14.56.8,18.84.8,1.07,0,2.14,1.2,2.67,2,1.47,2.14,5.08,5.48,8.55,9.49,3.74,4.14,19.51,20.84,25.25,26.32.53.4.93.27.93-.53.4-6.68.54-20.71-.4-26.06-.53-3.88-2.4-6.28-7.88-7.48-2.27-.67-3.48-1.2-3.48-2.4,0-1.47,2.54-1.74,3.74-1.74,4.41,0,8.28.4,11.49.4,2.67,0,5.88-.54,9.22-.54,1.87,0,3.34.4,3.34,1.74s-1.2,1.6-3.74,2.67c-4.28,1.6-5.21,3.07-5.75,7.75-.67,5.88-1.34,26.46-1.34,31s.67,13.5.67,14.43c0,4.14-.67,5.61-2.27,5.61-1.47,0-5.08-1.6-6.82-3.34-2.67-3.21-7.08-8.69-14.83-17.1-6.15-6.41-14.83-16.43-22.05-23.78-.27-.27-1.07-.27-1.07.53-.13,4.81-.54,21.51-.13,29.8.27,3.34,2.14,6.01,7.22,7.62,1.47.54,2.81,1.2,2.81,2.14,0,1.47-1.47,2-3.74,2-.4,0-4.01-.27-7.75-.27-3.21,0-8.82.67-12.56.67-2.14,0-3.61-.67-3.61-2,0-.8.8-1.47,3.34-2.14,6.01-1.6,7.08-4.54,7.48-8.69.4-3.74,1.47-19.64,1.47-26.86,0-4.14-.13-8.95-.27-9.75-.13-.94-2.54-5.08-4.68-6.28-1.2-.67-3.21-1.34-5.21-1.87-2.27-.53-3.21-1.2-3.21-2.54,0-.8,1.34-1.6,3.74-1.6Z"/>
    <path class="st1" d="M1641.32,94.67c1.2,0,9.89.4,13.76.4,4.14,0,11.62-.54,14.96-.67,1.2-.13,2.54.54,2.54,1.47,0,1.34-2,2.54-3.47,2.81-5.88,1.34-5.75,2.41-6.28,7.08-.4,3.61-.4,13.09-.4,21.78,0,4.81,0,10.69.13,13.5.27,7.75.4,8.95,6.41,10.16,2,.53,3.21,1.74,3.21,2.94s-1.47,1.6-3.48,1.6c-4.81,0-7.35-.4-12.43-.4-3.88,0-13.5.8-16.03.8-1.87,0-3.61-.54-3.61-1.6,0-1.34,1.6-2.54,3.34-3.07,5.88-1.6,6.82-3.21,7.22-8.82.27-2.41.27-7.88.27-12.43,0-13.76.13-21.25-.27-24.32-.4-3.34-1.47-5.61-5.48-6.68-2.54-.67-3.74-2.01-3.74-3.34,0-.93,1.34-1.2,3.34-1.2Z"/>
    <path class="st1" d="M1725.17,95.07c13.63,0,15.1-.8,18.57-2.54.54-.27,2.01.4,2.01,2.14-.27,4.68.4,12.29.4,13.9,0,1.87-1.74,3.07-2.67,3.07s-1.6-.67-2.41-3.07c-2.14-5.61-4.01-6.95-6.81-7.48-2.54-.53-10.02-.53-12.43,0-.54.13-.94.8-1.07,1.6-.13,2-.13,17.1-.13,30.6,0,7.22,0,10.16.53,12.56.54,2.94,1.47,4.01,6.55,5.35,2.67.53,3.74,1.34,3.74,2.54,0,1.6-2.41,2.14-4.14,2.14-5.61,0-8.02-.53-14.43-.53-3.47,0-12.29.8-15.36.8-2.41,0-3.88-.8-3.88-2.14,0-1.2,1.74-2.14,3.47-2.54,6.82-1.74,7.35-3.87,7.62-9.35.53-10.56,1.07-23.38,1.07-38.75,0-.8-.4-2.01-1.07-2.14-2.27-.53-9.75-.8-12.43-.27-2.27.67-4.01,2-6.41,6.68-1.6,2.8-2.27,3.61-2.94,3.61-1.47,0-2.27-1.74-2.27-3.07,0-1.2,1.47-11.09,1.87-14.3,0-1.6,1.6-1.87,2.01-1.87,1.07,0,2.27,1.2,2.94,1.6,2,1.07,4.54,1.47,16.03,1.47h21.65Z"/>
    <path class="st1" d="M1755.3,94.4c2.67,0,9.35.67,13.36.67,4.41,0,9.75-.4,12.56-.4,1.6,0,3.47.27,3.47,1.74,0,1.34-1.34,2.27-2.94,2.54-3.21.67-3.21,2.27-2.27,4.41,1.07,2.67,6.55,12.69,10.69,20.04.27.4.94-.13,1.2-.4.67-1.07,8.15-15.1,10.16-19.78,1.07-2.81.13-3.61-3.21-4.54-1.87-.67-2.81-1.2-2.81-2.4,0-1.34,2.14-1.6,3.47-1.6,3.48,0,4.14.4,8.02.4,2.14,0,9.89-.54,11.76-.54,1.2,0,2.94.27,2.94,1.47,0,1.87-2.14,2.41-3.21,2.67-6.41,1.34-8.02,2.94-11.89,8.15-3.48,4.41-9.62,15.63-12.16,20.98-.53,1.07-1.07,2.81-1.2,5.08,0,2.81-.13,10.16.13,13.09.27,3.21,2.01,4.28,6.28,5.35,2.14.54,3.47,1.47,3.47,2.27,0,.93-1.34,2.14-3.47,2.14-4.54,0-7.08-.4-12.03-.4-3.74,0-12.69.53-16.84.53-2.27,0-4.14-.4-4.14-2,0-.53.8-1.74,3.48-2.27,6.68-1.34,7.22-2.94,7.48-5.08.4-2.27.4-10.82.4-13.09,0-2.01-.13-2.81-.8-4.28-2.01-4.81-10.16-19.38-13.23-23.25-4.01-5.34-4.68-6.15-9.22-7.48-2-.53-3.07-1.2-3.07-2.41s1.47-1.6,3.61-1.6Z"/>
    <path class="st1" d="M457.11,244.2c0,11.49-3.74,19.24-11.49,25.79-7.88,6.95-19.11,8.02-22.72,8.02-26.72,0-36.21-18.98-36.21-32.47,0-9.35,4.01-17.91,10.29-23.38,7.75-6.68,17.1-8.95,24.99-8.95,21.25,0,35.14,14.56,35.14,31ZM409.55,222.82c-3.61,3.88-5.75,11.22-5.75,20.58,0,17.91,11.09,30.06,20.18,30.06,2.14,0,6.95-.67,11.22-5.61,3.74-4.41,5.08-13.23,5.08-22.45,0-7.62-5.75-27.66-20.18-27.66-2.67,0-7.08,1.07-10.56,5.08Z"/>
    <path class="st1" d="M472.61,214.94c3.61,0,9.35.54,14.03.54,13.36,0,31.27.13,33.81-.4.53-.13,1.47.67,1.47,1.6,0,2.81.4,8.55.4,11.09,0,2.81-1.6,3.88-2.54,3.88-1.07,0-1.47-.94-2.67-3.74-1.74-4.41-3.74-6.41-5.48-6.95-1.6-.54-7.62-.8-15.63-.8-.4,0-1.47,1.2-1.47,2.14-.13,5.34-.53,14.96-.27,19.64.13.67.67,1.47,1.2,1.47,1.34.13,4.81-.27,9.49-.4,3.87,0,4.54-2.41,5.88-5.35.53-1.2,1.47-2.67,2.4-2.67,1.6,0,2,2.41,2,3.21-.13,2.27-.27,4.28-.27,6.95,0,3.07.13,6.01.4,8.55.13,1.74-.8,3.61-2.4,3.61-.67,0-1.87-1.6-2.4-3.07-1.2-3.48-2.27-4.41-4.28-4.94-1.47-.4-6.01-.53-11.09-.53-.4,0-.94,1.2-.94,1.6-.13,3.21,0,10.02.13,14.97.13,4.01,1.07,5.08,6.15,6.41,1.87.4,3.61,1.34,3.61,2.54,0,1.6-2.41,2-4.14,2-1.6,0-10.69-.53-15.1-.53-3.74,0-8.82.67-12.69.67-2.54,0-3.88-.8-3.88-2,0-1.07,1.47-2.14,3.88-2.67,4.81-.93,5.61-2.27,6.15-6.28.27-2.01.53-10.82.53-18.57,0-13.63-.13-20.31-.53-22.85-.13-1.34-.94-3.34-5.48-4.54-3.34-.8-4.14-1.6-4.14-2.94,0-.67,1.34-1.6,3.87-1.6Z"/>
    <path class="st1" d="M628.4,191.02c3.21.8,6.55,1.6,9.62,2,.94,0,2,1.6,2,3.47.13,3.88.4,8.55.67,12.43.13,2.81-.8,5.08-2.27,5.08-.67,0-1.74-1.6-2.54-3.61-1.34-4.14-3.34-7.75-5.61-9.49-5.75-4.94-12.56-7.75-19.78-7.75-21.25,0-31.27,16.7-31.27,37.15,0,8.95,1.6,16.7,4.54,22.58,7.35,14.7,19.51,19.91,29.93,19.91,1.74,0,8.28-.27,12.96-3.07,4.94-2.81,8.55-6.68,11.62-12.16,1.6-2.94,2.54-4.14,3.61-4.14,1.47,0,1.47,3.48,1.07,4.94-.67,3.34-2.81,9.22-4.01,11.62-.4,1.2-2.81,3.34-4.81,4.28-1.87.67-11.09,3.88-23.38,3.88-19.78,0-33.81-8.95-39.15-15.23-5.08-5.88-11.22-15.1-11.22-29.93,0-16.17,8.95-27.53,14.56-32.07,11.36-9.35,25.12-12.03,36.08-12.03,6.15,0,12.56.94,17.37,2.14Z"/>
    <path class="st1" d="M721.07,244.2c0,11.49-3.74,19.24-11.49,25.79-7.88,6.95-19.11,8.02-22.72,8.02-26.72,0-36.21-18.98-36.21-32.47,0-9.35,4.01-17.91,10.29-23.38,7.75-6.68,17.1-8.95,24.99-8.95,21.25,0,35.14,14.56,35.14,31ZM673.5,222.82c-3.61,3.88-5.75,11.22-5.75,20.58,0,17.91,11.09,30.06,20.18,30.06,2.14,0,6.95-.67,11.22-5.61,3.74-4.41,5.08-13.23,5.08-22.45,0-7.62-5.75-27.66-20.18-27.66-2.67,0-7.08,1.07-10.56,5.08Z"/>
    <path class="st1" d="M731.64,214.54c4.41,0,11.76.94,19.64.94.53,0,2,.93,2.14,1.74.4,2.14,1.34,4.28,3.07,8.55,2.81,6.41,10.96,21.78,14.56,28.33.27.53.94.4,1.2,0,2.54-4.01,10.96-21.11,13.63-27.13,2-4.28,3.21-7.35,3.74-10.02,0-.4.94-1.47,1.34-1.47,7.35,0,11.89-.94,19.37-.94,2.27,0,3.74.67,3.74,1.6,0,1.07-.8,2.01-4.41,2.67-4.54.8-7.08,3.21-7.08,8.28.13,15.9.13,25.66.67,34.21.4,7.35,2.41,9.49,7.75,10.82,3.07.67,3.88,1.34,3.88,2.41,0,1.47-2.41,1.87-3.74,1.87-4.01,0-11.09-.67-14.7-.67-3.88,0-8.42.4-12.16.4-2.81,0-4.14-.67-4.14-2.14,0-.94,1.07-1.74,3.87-2.54,2.94-.94,3.74-2.94,4.01-7.35.13-4.68.67-20.45.67-30.47,0-.8-1.07-.53-1.34-.13-7.08,14.83-14.97,31-17.24,37.42-1.07,3.07-2.94,5.75-4.68,5.75s-2.81-1.34-5.61-8.95c-3.34-8.69-9.22-21.38-15.5-34.47-.4-.93-1.07,0-1.07.27-.94,8.55-1.2,23.12-.94,30.73.13,3.21,1.07,6.15,6.55,7.62,1.2.27,3.07,1.07,3.07,2.27-.13,1.2-1.87,2-3.87,2-2.67,0-7.62-.4-10.42-.4-1.74,0-8.02.67-9.75.67-2.4,0-3.74-1.07-3.74-2.14s2-1.74,4.01-2.27c4.14-1.2,6.55-3.34,7.48-8.69,1.74-10.02,3.61-34.34,3.61-37.15,0-3.87-1.07-5.75-7.48-7.48-3.07-.8-3.47-1.47-3.47-2.54,0-.93,1.34-1.6,3.34-1.6Z"/>
    <path class="st1" d="M827.7,215.2c2.67,0,5.61.13,8.42.13,4.54,0,14.43-.67,18.31-.67,9.22,0,16.44,1.74,19.91,4.81,4.28,3.87,6.55,8.82,6.55,14.7,0,6.68-3.61,11.62-6.95,14.7-3.07,2.67-9.35,4.28-13.23,4.28-1.6,0-2.94,0-4.41-.4-2-.8-2.94-1.74-2.94-2.41,0-1.07.94-1.74,2.94-2,5.21-.54,9.62-5.61,9.62-13.5,0-5.21-1.6-9.09-3.87-11.62-2.41-2.67-5.88-4.28-8.15-4.28-.94,0-2.94.54-3.87,1.2-.4.13-.8,1.34-.94,2.27-.53,6.15-.4,36.61-.4,39.42,0,6.95,1.34,8.55,6.55,9.62,1.6.4,3.61,1.34,3.61,2.54,0,1.74-2.67,2.14-4.01,2.14-5.34,0-9.75-.4-12.29-.4-3.47,0-9.89.67-15.37.67-1.74,0-3.74-.4-3.74-2,0-1.2.8-2,3.34-2.67,4.68-.93,6.41-2.67,6.68-6.82.27-3.47.4-5.34.4-8.69,0-4.81.13-25.39-.27-30.2-.13-3.47-1.2-5.21-6.82-6.41-2-.4-3.34-1.47-3.34-2.41,0-1.6,2.14-2,4.28-2Z"/>
    <path class="st1" d="M923.51,214.8c.53,4.14,1.2,5.75,1.87,7.48,1.87,4.81,13.09,32.74,16.7,40.09,3.21,6.68,3.88,7.88,8.69,9.22,2.67.94,3.74,1.74,3.74,2.54,0,1.07-1.34,2.27-2.41,2.27-6.01-.13-14.83-.67-19.78-.67-3.47,0-4.94.4-9.62.4-2.27,0-3.61-1.07-3.61-2.14,0-.8.8-1.74,3.21-2.27,4.28-.93,4.94-2.67,4.94-4.28,0-1.07-1.6-5.35-2.4-7.22-.13-.53-1.2-1.6-2.81-1.74s-11.49-.4-16.17-.13c-1.6.13-3.21.4-3.74,1.2-.67,1.34-2.14,5.21-2.14,7.08,0,2.67,1.07,4.01,5.35,5.21,1.87.54,3.07,1.2,3.07,2.27,0,1.34-1.47,1.87-3.74,1.87-3.88,0-5.75-.27-8.55-.27-4.81,0-8.55.53-11.89.67-2.4.13-3.21-.67-3.21-1.47,0-1.33,1.47-2.27,3.87-2.94,4.68-1.47,6.55-4.14,9.09-9.09,3.07-5.75,12.03-27.13,14.7-33.67,1.74-4.14,2.14-5.48,2.94-7.88.13-.67.67-1.34,1.87-2.27,1.34-1.2,3.47-2.27,5.21-4.28.53-.67,2.41-1.6,2.94-1.6.67,0,1.74.54,1.87,1.6ZM921.5,250.88c-2.27-6.01-6.95-17.64-7.62-19.24-.13-.27-1.07-.13-1.34.4-2.41,6.15-5.61,14.03-7.48,19.38,0,.27.4.94.94.94,3.61.27,11.76.27,14.7-.13.53-.13.8-.8.8-1.33Z"/>
    <path class="st1" d="M1001.74,215.2c.4,0,1.07,1.47,1.07,2.27,0,3.88.13,9.22-.13,10.96-.4,2.67-1.74,3.47-2.14,3.47-1.34,0-2-1.74-2.27-3.21-1.07-4.01-2.4-6.01-4.28-7.88-2-1.87-5.88-3.47-8.95-3.47-5.75,0-9.75,3.74-9.75,8.55,0,3.47,2.4,6.68,6.41,8.95,4.41,2.67,8.95,4.94,13.23,7.48,5.75,3.47,10.82,8.69,10.82,16.3s-4.94,12.83-9.35,15.5c-3.21,1.87-9.75,3.88-16.3,3.88-7.35,0-14.16-1.87-17.64-4.01-1.07-.67-1.47-2.01-1.6-2.67-.27-1.6-.94-8.95-.94-10.96,0-2.14.67-4.28,2-4.28,1.47,0,2,1.87,2.94,4.01.94,2.27,2,4.14,3.34,6.01,3.34,4.68,8.95,7.62,13.63,7.62s9.75-3.34,9.75-8.69c0-4.54-3.34-7.22-6.41-9.09-4.28-2.67-9.22-5.35-11.89-7.08-4.94-3.21-11.22-8.55-11.22-17.1,0-10.16,8.02-18.57,24.05-18.57,7.62,0,12.29,1.6,15.63,2.01Z"/>
    <path class="st1" d="M1061.2,215.2c.4,0,1.07,1.47,1.07,2.27,0,3.88.13,9.22-.13,10.96-.4,2.67-1.74,3.47-2.14,3.47-1.34,0-2.01-1.74-2.27-3.21-1.07-4.01-2.41-6.01-4.28-7.88-2-1.87-5.88-3.47-8.95-3.47-5.75,0-9.75,3.74-9.75,8.55,0,3.47,2.4,6.68,6.41,8.95,4.41,2.67,8.95,4.94,13.23,7.48,5.75,3.47,10.82,8.69,10.82,16.3s-4.94,12.83-9.35,15.5c-3.21,1.87-9.75,3.88-16.3,3.88-7.35,0-14.16-1.87-17.64-4.01-1.07-.67-1.47-2.01-1.6-2.67-.27-1.6-.94-8.95-.94-10.96,0-2.14.67-4.28,2-4.28,1.47,0,2,1.87,2.94,4.01.94,2.27,2,4.14,3.34,6.01,3.34,4.68,8.95,7.62,13.63,7.62s9.75-3.34,9.75-8.69c0-4.54-3.34-7.22-6.41-9.09-4.28-2.67-9.22-5.35-11.89-7.08-4.94-3.21-11.22-8.55-11.22-17.1,0-10.16,8.02-18.57,24.05-18.57,7.62,0,12.29,1.6,15.63,2.01Z"/>
    <path class="st1" d="M1078.7,215.07c1.2,0,9.89.4,13.76.4,4.14,0,11.62-.54,14.96-.67,1.2-.13,2.54.54,2.54,1.47,0,1.34-2,2.54-3.47,2.81-5.88,1.34-5.75,2.41-6.28,7.08-.4,3.61-.4,13.09-.4,21.78,0,4.81,0,10.69.13,13.5.27,7.75.4,8.95,6.41,10.16,2,.53,3.21,1.74,3.21,2.94s-1.47,1.6-3.47,1.6c-4.81,0-7.35-.4-12.43-.4-3.88,0-13.5.8-16.03.8-1.87,0-3.61-.54-3.61-1.6,0-1.33,1.6-2.54,3.34-3.07,5.88-1.6,6.82-3.21,7.22-8.82.27-2.41.27-7.88.27-12.43,0-13.76.13-21.25-.27-24.32-.4-3.34-1.47-5.61-5.48-6.68-2.54-.67-3.74-2.01-3.74-3.34,0-.93,1.34-1.2,3.34-1.2Z"/>
    <path class="st1" d="M1188.28,244.2c0,11.49-3.74,19.24-11.49,25.79-7.88,6.95-19.11,8.02-22.72,8.02-26.72,0-36.21-18.98-36.21-32.47,0-9.35,4.01-17.91,10.29-23.38,7.75-6.68,17.1-8.95,24.99-8.95,21.25,0,35.14,14.56,35.14,31ZM1140.71,222.82c-3.61,3.88-5.75,11.22-5.75,20.58,0,17.91,11.09,30.06,20.18,30.06,2.14,0,6.95-.67,11.22-5.61,3.74-4.41,5.08-13.23,5.08-22.45,0-7.62-5.75-27.66-20.18-27.66-2.67,0-7.08,1.07-10.56,5.08Z"/>
    <path class="st1" d="M1197.7,214.67c1.87,0,14.56.8,18.84.8,1.07,0,2.14,1.2,2.67,2,1.47,2.14,5.08,5.48,8.55,9.49,3.74,4.14,19.51,20.84,25.25,26.32.53.4.93.27.93-.53.4-6.68.54-20.71-.4-26.06-.53-3.88-2.4-6.28-7.88-7.48-2.27-.67-3.48-1.2-3.48-2.4,0-1.47,2.54-1.74,3.74-1.74,4.41,0,8.28.4,11.49.4,2.67,0,5.88-.54,9.22-.54,1.87,0,3.34.4,3.34,1.74s-1.2,1.6-3.74,2.67c-4.28,1.6-5.21,3.07-5.75,7.75-.67,5.88-1.34,26.46-1.34,31s.67,13.5.67,14.43c0,4.14-.67,5.61-2.27,5.61-1.47,0-5.08-1.6-6.82-3.34-2.67-3.21-7.08-8.69-14.83-17.1-6.15-6.41-14.83-16.43-22.05-23.78-.27-.27-1.07-.27-1.07.53-.13,4.81-.54,21.51-.13,29.8.27,3.34,2.14,6.01,7.22,7.62,1.47.54,2.81,1.2,2.81,2.14,0,1.47-1.47,2-3.74,2-.4,0-4.01-.27-7.75-.27-3.21,0-8.82.67-12.56.67-2.14,0-3.61-.67-3.61-2,0-.8.8-1.47,3.34-2.14,6.01-1.6,7.08-4.54,7.48-8.69.4-3.74,1.47-19.64,1.47-26.86,0-4.14-.13-8.95-.27-9.75-.13-.94-2.54-5.08-4.68-6.28-1.2-.67-3.21-1.34-5.21-1.87-2.27-.53-3.21-1.2-3.21-2.54,0-.8,1.34-1.6,3.74-1.6Z"/>
  </g>
</svg>